<svg xmlns="http://www.w3.org/2000/svg" xmlns:xlink="http://www.w3.org/1999/xlink" width="500" zoomAndPan="magnify" viewBox="0 0 375 374.999991" height="500" preserveAspectRatio="xMidYMid meet" version="1.0"><defs><g/><clipPath id="0fb9dd4659"><path d="M 135 48 L 211 48 L 211 126 L 135 126 Z M 135 48 " clip-rule="nonzero"/></clipPath><clipPath id="7426e68db1"><path d="M 51.726562 81.152344 L 194.996094 36.730469 L 226.316406 137.738281 L 83.042969 182.160156 Z M 51.726562 81.152344 " clip-rule="nonzero"/></clipPath><clipPath id="d6a1b5c0ec"><path d="M 51.726562 81.152344 L 194.996094 36.730469 L 226.316406 137.738281 L 83.042969 182.160156 Z M 51.726562 81.152344 " clip-rule="nonzero"/></clipPath><clipPath id="765785bf58"><path d="M 51.726562 81.152344 L 194.996094 36.730469 L 226.316406 137.738281 L 83.042969 182.160156 Z M 51.726562 81.152344 " clip-rule="nonzero"/></clipPath><clipPath id="e82145b87d"><path d="M 80 93 L 148 93 L 148 179 L 80 179 Z M 80 93 " clip-rule="nonzero"/></clipPath><clipPath id="5edf45ef0e"><path d="M 51.726562 81.152344 L 194.996094 36.730469 L 226.316406 137.738281 L 83.042969 182.160156 Z M 51.726562 81.152344 " clip-rule="nonzero"/></clipPath><clipPath id="f5e2442074"><path d="M 51.726562 81.152344 L 194.996094 36.730469 L 226.316406 137.738281 L 83.042969 182.160156 Z M 51.726562 81.152344 " clip-rule="nonzero"/></clipPath><clipPath id="0cb7da89e0"><path d="M 51.726562 81.152344 L 194.996094 36.730469 L 226.316406 137.738281 L 83.042969 182.160156 Z M 51.726562 81.152344 " clip-rule="nonzero"/></clipPath><clipPath id="2fd54f9eae"><path d="M 108.140625 117.296875 L 266.859375 117.296875 L 266.859375 276.019531 L 108.140625 276.019531 Z M 108.140625 117.296875 " clip-rule="nonzero"/></clipPath><clipPath id="f3a2b7aeed"><path d="M 187.5 117.296875 C 143.671875 117.296875 108.140625 152.828125 108.140625 196.65625 C 108.140625 240.488281 143.671875 276.019531 187.5 276.019531 C 231.328125 276.019531 266.859375 240.488281 266.859375 196.65625 C 266.859375 152.828125 231.328125 117.296875 187.5 117.296875 " clip-rule="nonzero"/></clipPath><clipPath id="d20a794abb"><path d="M 369.765625 150 L 375 150 L 375 190 L 369.765625 190 Z M 369.765625 150 " clip-rule="nonzero"/></clipPath><clipPath id="17fa2d10df"><path d="M 85.675781 200 L 289.675781 200 L 289.675781 219.371094 L 85.675781 219.371094 Z M 85.675781 200 " clip-rule="nonzero"/></clipPath><clipPath id="a31ca328db"><path d="M 175.039062 187.5 L 199.789062 187.5 L 199.789062 212.25 L 175.039062 212.25 Z M 175.039062 187.5 " clip-rule="nonzero"/></clipPath></defs><g clip-path="url(#0fb9dd4659)"><g clip-path="url(#7426e68db1)"><g clip-path="url(#d6a1b5c0ec)"><g clip-path="url(#765785bf58)"><path fill="#b1d4e0" d="M 137.601562 85.039062 C 133.890625 73.40625 133.074219 64.667969 143.546875 56.433594 C 146.96875 53.628906 150.757812 51.316406 154.742188 49.398438 C 155.96875 48.851562 157.335938 48.742188 158.648438 48.527344 C 166.882812 48.257812 174.746094 51.980469 181.988281 55.523438 C 194.253906 61.808594 204.128906 72.316406 209.78125 84.878906 C 210.242188 85.9375 210.597656 87.046875 210.742188 88.203125 C 210.777344 88.59375 211.128906 89.003906 210.90625 89.34375 C 210.484375 89.992188 210.078125 90.703125 209.273438 90.992188 C 208.308594 91.339844 207.339844 91.671875 206.320312 91.839844 C 195.3125 93.238281 184.355469 89.820312 173.9375 86.625 C 173.574219 86.628906 173.917969 87.15625 173.96875 87.34375 C 176.578125 94.875 176.148438 103.101562 175.472656 110.9375 C 175.222656 112.085938 174.527344 121.074219 173.539062 120.5 C 173.015625 120.472656 173.273438 119.773438 173.25 119.433594 C 174.203125 108.546875 174.101562 97.367188 171.175781 86.769531 C 170.984375 86.253906 170.789062 85.609375 170.273438 85.339844 C 169.613281 85.082031 168.949219 84.828125 168.28125 84.582031 C 168.105469 84.515625 167.984375 84.640625 168.023438 84.84375 C 169.570312 92.621094 170.003906 100.574219 169.363281 108.476562 C 169.222656 111.96875 168.78125 115.460938 168.949219 118.960938 C 169.144531 120.121094 168.382812 119.972656 167.511719 120.246094 C 165.820312 120.644531 164.160156 121.144531 162.550781 121.800781 C 161.652344 122.175781 161.542969 122.140625 161.078125 121.269531 C 158.871094 117.140625 156.59375 113.046875 154.683594 108.769531 C 150.679688 100.28125 147.835938 91.199219 147.152344 81.800781 C 146.996094 79.117188 146.777344 76.332031 147.535156 73.722656 C 147.65625 73.359375 147.632812 73.054688 147.304688 72.8125 C 147.222656 72.75 147.15625 72.664062 147.097656 72.578125 C 146.964844 72.433594 147.09375 72.144531 147.308594 72.273438 C 159.558594 79.238281 172.773438 84.175781 186.425781 87.601562 C 192.1875 88.980469 198.070312 90.292969 204.027344 90.121094 C 205.421875 90.066406 206.8125 89.929688 208.144531 89.488281 C 209.003906 89.207031 209.105469 89.035156 208.976562 88.171875 C 208.40625 85.292969 206.960938 82.613281 205.425781 80.140625 C 195.734375 64.808594 179.109375 53.578125 161.109375 50.984375 C 157.03125 50.511719 153.492188 52.785156 150.179688 54.847656 C 147.492188 55.925781 145.238281 57.8125 143.054688 59.695312 C 139.773438 62.644531 136.855469 66.445312 136.78125 71.035156 C 136.632812 78.675781 139.363281 86.027344 142.082031 93.054688 C 145.757812 102.085938 149.699219 111.011719 153.117188 120.148438 C 153.667969 121.570312 154.199219 123 154.777344 124.414062 C 154.84375 124.585938 154.863281 124.773438 154.699219 124.921875 C 154.445312 125.15625 154.136719 125.128906 153.984375 124.816406 C 153.6875 124.199219 153.414062 123.574219 153.144531 122.945312 C 150.742188 117.335938 148.453125 111.683594 145.984375 106.105469 C 143.023438 99.105469 139.789062 92.371094 137.601562 85.042969 Z M 137.601562 85.039062 " fill-opacity="1" fill-rule="nonzero"/></g></g></g></g><g clip-path="url(#e82145b87d)"><g clip-path="url(#5edf45ef0e)"><g clip-path="url(#f5e2442074)"><g clip-path="url(#0cb7da89e0)"><path fill="#b1d4e0" d="M 84.046875 172.828125 C 84.410156 174.140625 84.902344 175.3125 85.578125 176.429688 C 86.054688 177.160156 86.285156 177.230469 87.082031 176.941406 C 94.492188 170.363281 103.019531 164.191406 108.085938 155.460938 C 110.875 150.179688 111.695312 144.175781 112.046875 138.292969 C 112.683594 129.449219 112.621094 120.460938 114.402344 111.75 C 115.5 107.460938 118.238281 103.191406 122.273438 101.195312 C 122.796875 101 124.101562 101.160156 123.359375 101.921875 C 122.25 102.847656 120.949219 103.527344 120.035156 104.683594 C 119.914062 104.835938 119.609375 105.078125 119.808594 105.28125 C 121.59375 106.914062 123.46875 108.449219 125.046875 110.292969 C 131.214844 117.335938 138.183594 123.835938 143.03125 131.902344 C 143.476562 132.332031 142.828125 132.636719 142.523438 132.910156 C 140.597656 134.421875 138.78125 136.054688 137.054688 137.792969 C 136.707031 138.132812 136.320312 138.203125 135.894531 138.011719 C 133.246094 136.730469 130.734375 135.167969 128.148438 133.761719 C 125.929688 132.5 123.699219 131.257812 121.535156 129.910156 C 119.375 128.441406 117.582031 126.523438 115.625 124.808594 C 115.117188 124.167969 114.730469 124.222656 114.808594 125.085938 C 114.855469 125.949219 114.308594 127.445312 115.03125 128.03125 C 116.011719 128.90625 116.988281 129.785156 118.023438 130.601562 C 122.417969 134.125 126.863281 137.582031 131.566406 140.683594 C 131.839844 140.957031 132.878906 141.265625 132.691406 141.636719 C 132.476562 141.890625 132.140625 141.554688 131.910156 141.480469 C 125.761719 138.378906 119.941406 134.539062 114.601562 130.292969 C 114.421875 130.359375 114.460938 130.546875 114.453125 130.699219 C 114.277344 134.695312 114.144531 138.691406 113.691406 142.667969 C 112.460938 158.382812 103.328125 164.328125 92.601562 174.007812 C 90.367188 175.914062 86.785156 180.984375 83.992188 177.210938 C 78.984375 169.054688 81.351562 158.910156 81.296875 149.851562 C 81.847656 134.1875 81.078125 117.574219 88.371094 103.222656 C 90.398438 99.710938 93.175781 95.5 97.382812 94.59375 C 104.816406 93.671875 112.382812 92.777344 119.863281 93.566406 C 123.160156 94.054688 124.996094 97.089844 126.933594 99.476562 C 131.8125 105.851562 135.996094 112.714844 140.609375 119.277344 C 142.617188 122.257812 145.238281 124.726562 147.402344 127.582031 C 147.570312 127.867188 147.988281 128.179688 147.828125 128.53125 C 147.613281 128.886719 147.226562 128.804688 146.933594 128.613281 C 143.21875 126.414062 140.519531 122.917969 137.96875 119.511719 C 132.789062 112.351562 128.136719 104.816406 122.621094 97.894531 C 121.722656 96.707031 120.589844 95.695312 119.058594 95.488281 C 115.808594 94.933594 112.5 95.023438 109.222656 95.269531 C 105.621094 95.570312 101.957031 95.824219 98.472656 96.835938 C 94.128906 98.175781 90.890625 102.382812 88.882812 106.28125 C 84.230469 118.199219 83.988281 131.199219 83.585938 143.828125 C 83.460938 150.457031 82.933594 157.070312 82.828125 163.699219 C 82.828125 166.75 83.085938 169.9375 84.046875 172.828125 Z M 84.046875 172.828125 " fill-opacity="1" fill-rule="nonzero"/></g></g></g></g><g clip-path="url(#2fd54f9eae)"><g clip-path="url(#f3a2b7aeed)"><path fill="#ffffff" d="M 108.140625 117.296875 L 266.859375 117.296875 L 266.859375 276.019531 L 108.140625 276.019531 Z M 108.140625 117.296875 " fill-opacity="1" fill-rule="nonzero"/></g></g><g clip-path="url(#d20a794abb)"><path fill="#1e1a1b" d="M 465.90625 186.128906 C 457.816406 188.992188 446.054688 184.277344 445.742188 174.71875 C 470.292969 163.246094 459.824219 141.285156 445.253906 155.035156 C 436.316406 143.078125 418.296875 157.046875 443.183594 174.121094 C 442.847656 184.863281 427.789062 190.695312 419.71875 184.4375 C 419.347656 184.09375 419.015625 183.710938 418.726562 183.292969 C 417.394531 181.785156 415.886719 183.78125 417.097656 185.09375 C 424.203125 193.78125 440.457031 189.863281 444.539062 179.898438 C 448.125 187.59375 457.835938 191.375 465.824219 189.261719 C 468.152344 188.503906 473.421875 186.394531 471.800781 183.292969 C 470.105469 181.390625 469.03125 185.417969 465.90625 186.128906 Z M 428.683594 169.023438 C 428.695312 169.039062 428.707031 169.054688 428.714844 169.070312 C 429.78125 170.984375 429.621094 171.5 429.320312 171.753906 C 429.210938 171.851562 429.082031 171.898438 428.933594 171.894531 C 428.527344 171.894531 428.082031 171.535156 427.835938 171.332031 C 427.820312 171.316406 427.804688 171.300781 427.789062 171.285156 C 418.597656 160.996094 404.882812 155.457031 385.855469 154.359375 C 385.742188 154.355469 385.644531 154.308594 385.5625 154.226562 C 385.480469 154.140625 385.441406 154.039062 385.4375 153.921875 C 385.4375 153.804688 385.476562 153.703125 385.554688 153.617188 C 385.632812 153.53125 385.730469 153.484375 385.847656 153.476562 C 393.15625 152.886719 401.707031 153.964844 409.3125 156.445312 C 415.390625 158.429688 423.683594 162.21875 428.683594 169.023438 Z M 370.4375 167.609375 C 370.328125 167.644531 370.222656 167.636719 370.117188 167.585938 C 370.015625 167.539062 369.941406 167.460938 369.898438 167.355469 C 369.855469 167.25 369.855469 167.140625 369.894531 167.035156 C 369.933594 166.925781 370.003906 166.847656 370.105469 166.792969 C 384.765625 159.214844 411.484375 161.523438 424.046875 171.449219 C 426.066406 173.226562 426.03125 173.707031 425.824219 174.046875 C 425.691406 174.257812 425.5 174.351562 425.257812 174.332031 C 424.925781 174.332031 424.519531 174.183594 424.136719 174.027344 C 424.113281 174.019531 424.09375 174.007812 424.078125 173.996094 C 406.835938 163.75 389.289062 161.660156 370.4375 167.609375 Z M 420.960938 177.9375 C 404.855469 173.347656 392.511719 173.914062 379.683594 179.839844 C 379.582031 179.886719 379.476562 179.894531 379.371094 179.859375 C 379.261719 179.824219 379.179688 179.761719 379.121094 179.660156 C 379.0625 179.5625 379.046875 179.460938 379.070312 179.347656 C 379.09375 179.234375 379.148438 179.148438 379.242188 179.078125 C 388.707031 172.042969 409.613281 170.28125 420.667969 175.589844 C 422.316406 176.550781 422.566406 177.027344 422.4375 177.453125 C 422.261719 178.03125 421.445312 177.976562 421.050781 177.953125 C 421.023438 177.949219 420.992188 177.945312 420.960938 177.9375 Z M 503.6875 153.476562 C 503.800781 153.484375 503.898438 153.53125 503.976562 153.617188 C 504.058594 153.703125 504.097656 153.804688 504.09375 153.921875 C 504.09375 154.039062 504.050781 154.140625 503.972656 154.226562 C 503.890625 154.308594 503.792969 154.355469 503.675781 154.359375 C 484.648438 155.457031 470.933594 160.996094 461.746094 171.285156 C 461.730469 171.300781 461.714844 171.320312 461.695312 171.332031 C 461.449219 171.535156 461.003906 171.894531 460.597656 171.894531 C 460.453125 171.898438 460.324219 171.851562 460.210938 171.753906 C 459.914062 171.5 459.753906 170.984375 460.820312 169.070312 C 460.828125 169.054688 460.835938 169.039062 460.847656 169.023438 C 465.847656 162.21875 474.144531 158.429688 480.21875 156.445312 C 487.824219 153.964844 496.378906 152.886719 503.6875 153.476562 Z M 519.632812 167.355469 C 519.589844 167.460938 519.519531 167.539062 519.414062 167.589844 C 519.3125 167.636719 519.207031 167.644531 519.097656 167.609375 C 500.242188 161.664062 482.695312 163.75 465.457031 174 C 465.4375 174.007812 465.417969 174.019531 465.398438 174.027344 C 465.015625 174.183594 464.609375 174.332031 464.277344 174.332031 C 464.03125 174.351562 463.84375 174.257812 463.710938 174.046875 C 463.503906 173.707031 463.464844 173.226562 465.46875 171.464844 C 478.050781 161.523438 504.769531 159.214844 519.429688 166.792969 C 519.53125 166.847656 519.601562 166.925781 519.640625 167.035156 C 519.679688 167.140625 519.675781 167.25 519.632812 167.355469 Z M 510.292969 179.078125 C 510.382812 179.148438 510.441406 179.234375 510.464844 179.347656 C 510.488281 179.457031 510.46875 179.5625 510.414062 179.660156 C 510.355469 179.761719 510.273438 179.824219 510.164062 179.859375 C 510.054688 179.894531 509.949219 179.886719 509.847656 179.835938 C 497.023438 173.914062 484.675781 173.34375 468.570312 177.9375 C 468.542969 177.945312 468.511719 177.949219 468.480469 177.953125 C 468.089844 177.980469 467.273438 178.03125 467.097656 177.453125 C 466.96875 177.027344 467.214844 176.550781 468.835938 175.605469 C 479.921875 170.28125 500.828125 172.042969 510.292969 179.078125 Z M 510.292969 179.078125 " fill-opacity="1" fill-rule="nonzero"/></g><g fill="#b1d4e0" fill-opacity="1"><g transform="translate(151.250524, 232.026759)"><g><path d="M -1.488281 -1.59375 L -4.398438 -4.710938 L -20.839844 10.652344 L -17.929688 13.765625 Z M -1.488281 -1.59375 "/></g></g></g><g fill="#b1d4e0" fill-opacity="1"><g transform="translate(145.433689, 225.819395)"><g><path d="M -16.773438 6.109375 C -17.503906 5.027344 -19.023438 4.710938 -20.140625 5.46875 C -21.242188 6.214844 -21.519531 7.742188 -20.789062 8.824219 C -20.042969 9.929688 -18.519531 10.242188 -17.414062 9.496094 C -16.300781 8.742188 -16.023438 7.210938 -16.773438 6.109375 Z M -1.222656 -1.808594 L -3.601562 -5.328125 L -16.078125 3.109375 L -13.695312 6.628906 Z M -1.222656 -1.808594 "/></g></g></g><g fill="#b1d4e0" fill-opacity="1"><g transform="translate(140.665119, 219.070539)"><g><path d="M -3.136719 -7.132812 L -4.257812 -9.679688 L -7.195312 -8.390625 L -6.644531 -7.144531 C -6.210938 -6.152344 -6.492188 -5.304688 -7.726562 -4.761719 L -13.828125 -2.078125 L -15.078125 -4.921875 L -18.042969 -3.621094 L -16.792969 -0.777344 L -21.242188 1.179688 L -19.710938 4.667969 L -17.886719 3.867188 C -15.820312 2.957031 -14.90625 3.515625 -14.261719 4.976562 L -13.878906 5.847656 L -10.914062 4.542969 L -12.105469 1.835938 L -5.589844 -1.03125 C -2.839844 -2.238281 -1.957031 -4.453125 -3.136719 -7.132812 Z M -3.136719 -7.132812 "/></g></g></g><g fill="#b1d4e0" fill-opacity="1"><g transform="translate(136.155602, 208.967505)"><g><path d="M -1.628906 -7.621094 L -2.207031 -10.34375 L -5.347656 -9.671875 L -5.0625 -8.339844 C -4.835938 -7.28125 -5.285156 -6.511719 -6.601562 -6.230469 L -13.121094 -4.835938 L -13.769531 -7.875 L -16.933594 -7.199219 L -16.285156 -4.160156 L -21.042969 -3.144531 L -20.246094 0.578125 L -18.300781 0.164062 C -16.09375 -0.308594 -15.308594 0.421875 -14.972656 1.984375 L -14.777344 2.914062 L -11.609375 2.238281 L -12.226562 -0.652344 L -5.265625 -2.140625 C -2.328125 -2.769531 -1.015625 -4.757812 -1.628906 -7.621094 Z M -1.628906 -7.621094 "/></g></g></g><g fill="#b1d4e0" fill-opacity="1"><g transform="translate(133.904633, 197.916273)"><g><path d="M -0.0664062 -2.179688 L -0.191406 -6.441406 L -22.683594 -5.769531 L -22.554688 -1.507812 Z M -0.0664062 -2.179688 "/></g></g></g><g fill="#b1d4e0" fill-opacity="1"><g transform="translate(133.089449, 190.05041)"><g><path d="M -4.4375 -17.539062 C -9.617188 -18.542969 -12.542969 -15.882812 -13.371094 -11.699219 C -14.269531 -7.144531 -12.054688 -3.378906 -7.195312 -2.417969 C -2.339844 -1.460938 1.09375 -4.023438 2.035156 -8.796875 C 2.6875 -12.117188 1.503906 -15.113281 -1.292969 -16.679688 L -2.601562 -12.996094 C -1.40625 -12.175781 -0.941406 -10.890625 -1.234375 -9.410156 C -1.621094 -7.441406 -3.125 -6.035156 -5.617188 -6.347656 L -3.457031 -17.300781 Z M -10.433594 -11.148438 C -10.082031 -12.917969 -8.773438 -14.035156 -6.679688 -13.753906 L -8.03125 -6.898438 C -10.136719 -7.65625 -10.820312 -9.179688 -10.433594 -11.148438 Z M -10.433594 -11.148438 "/></g></g></g><g fill="#b1d4e0" fill-opacity="1"><g transform="translate(136.725182, 173.864867)"><g/></g></g><g fill="#b1d4e0" fill-opacity="1"><g transform="translate(138.832852, 167.152845)"><g><path d="M -5.621094 -18.046875 C -6.820312 -16.457031 -7.269531 -14.59375 -6.710938 -13.074219 L -14.117188 -18.652344 L -16.65625 -15.285156 L 1.3125 -1.742188 L 3.71875 -4.9375 L 2.214844 -6.199219 C 3.90625 -5.988281 5.667969 -6.9375 6.917969 -8.597656 C 9.300781 -11.757812 8.933594 -16.140625 5.003906 -19.101562 C 1.074219 -22.0625 -3.242188 -21.207031 -5.621094 -18.046875 Z M 3.53125 -9.921875 C 2.183594 -8.128906 -0.234375 -7.769531 -2.339844 -9.355469 C -4.445312 -10.945312 -4.769531 -13.386719 -3.429688 -15.167969 C -2.078125 -16.957031 0.300781 -17.363281 2.464844 -15.734375 C 4.617188 -14.109375 4.882812 -11.710938 3.53125 -9.921875 Z M 3.53125 -9.921875 "/></g></g></g><g fill="#b1d4e0" fill-opacity="1"><g transform="translate(149.271566, 152.958006)"><g><path d="M 1.363281 -19.304688 L 6.113281 -12.492188 C 7.683594 -10.210938 6.890625 -8.585938 5.457031 -7.589844 C 4.257812 -6.753906 2.816406 -6.640625 1.675781 -8.277344 L -3.597656 -15.847656 L -7.074219 -13.425781 L -1.277344 -5.109375 C 0.625 -2.382812 3.339844 -1.972656 6.308594 -4.039062 C 8.003906 -5.222656 8.929688 -6.8125 9.03125 -8.507812 L 10.15625 -7.078125 L 13.433594 -9.363281 L 4.824219 -21.71875 Z M 1.363281 -19.304688 "/></g></g></g><g fill="#b1d4e0" fill-opacity="1"><g transform="translate(163.0494, 143.048528)"><g><path d="M 6.085938 -17.925781 C 4.179688 -17.339844 2.835938 -16.175781 2.191406 -14.675781 L 1.703125 -16.273438 L -2.328125 -15.035156 L 2.085938 -0.640625 L 6.121094 -1.878906 L 3.683594 -9.816406 C 2.894531 -12.488281 4.148438 -13.792969 5.816406 -14.304688 C 7.203125 -14.726562 8.609375 -14.394531 9.195312 -12.472656 L 11.902344 -3.652344 L 15.949219 -4.894531 L 12.976562 -14.585938 C 12 -17.777344 9.542969 -18.984375 6.085938 -17.925781 Z M 6.085938 -17.925781 "/></g></g></g><g fill="#b1d4e0" fill-opacity="1"><g transform="translate(179.225282, 137.823455)"><g><path d="M 11.28125 -15.199219 C 9.289062 -15.226562 7.65625 -14.53125 6.582031 -13.300781 L 6.605469 -14.96875 L 2.386719 -15.027344 L 2.183594 0.03125 L 6.402344 0.0859375 L 6.515625 -8.21875 C 6.582031 -11 8.175781 -11.859375 9.917969 -11.832031 C 11.367188 -11.8125 12.601562 -11.066406 12.574219 -9.058594 L 12.449219 0.167969 L 16.683594 0.226562 L 16.820312 -9.910156 C 16.867188 -13.25 14.898438 -15.148438 11.28125 -15.199219 Z M 11.28125 -15.199219 "/></g></g></g><g fill="#b1d4e0" fill-opacity="1"><g transform="translate(196.85143, 138.537654)"><g><path d="M 8.449219 -15.722656 C 9.710938 -15.402344 11.054688 -16.183594 11.386719 -17.488281 C 11.714844 -18.78125 10.898438 -20.105469 9.636719 -20.425781 C 8.34375 -20.75 7 -19.972656 6.671875 -18.679688 C 6.339844 -17.375 7.15625 -16.050781 8.449219 -15.722656 Z M 2.117188 0.535156 L 6.234375 1.574219 L 9.925781 -13.023438 L 5.808594 -14.0625 Z M 2.117188 0.535156 "/></g></g></g><g fill="#b1d4e0" fill-opacity="1"><g transform="translate(204.62483, 139.905687)"><g><path d="M 18.082031 0.535156 C 20.46875 -4.167969 18.710938 -7.714844 14.914062 -9.652344 C 10.777344 -11.765625 6.550781 -10.667969 4.296875 -6.257812 C 2.046875 -1.851562 3.570312 2.152344 7.902344 4.363281 C 10.917969 5.902344 14.121094 5.585938 16.394531 3.324219 L 13.210938 1.054688 C 12.097656 1.984375 10.734375 2.078125 9.390625 1.390625 C 7.601562 0.476562 6.660156 -1.351562 7.644531 -3.664062 L 17.585938 1.414062 Z M 13.582031 -6.980469 C 15.1875 -6.160156 15.898438 -4.59375 15.058594 -2.65625 L 8.835938 -5.832031 C 10.140625 -7.652344 11.792969 -7.890625 13.582031 -6.980469 Z M 13.582031 -6.980469 "/></g></g></g><g fill="#b1d4e0" fill-opacity="1"><g transform="translate(218.965347, 147.23669)"><g><path d="M 5.308594 5.289062 C 7.699219 7.492188 10.707031 8.570312 13.050781 6.027344 C 15.234375 3.65625 14.042969 1.1875 12.757812 -0.855469 C 11.714844 -2.511719 10.59375 -3.867188 11.394531 -4.738281 C 12.03125 -5.429688 13 -5.074219 13.816406 -4.320312 C 14.722656 -3.484375 15.117188 -2.445312 14.5 -1.101562 L 17.636719 0.789062 C 19.148438 -1.71875 17.867188 -4.414062 15.710938 -6.398438 C 13.257812 -8.660156 10.410156 -9.351562 8.3125 -7.078125 C 6.597656 -5.214844 7.214844 -3.332031 8.113281 -1.648438 C 9.292969 0.59375 10.949219 2.296875 9.898438 3.460938 C 9.113281 4.355469 8.066406 3.828125 7.300781 3.121094 C 6.257812 2.160156 5.84375 0.921875 6.601562 -0.570312 L 3.328125 -2.230469 C 1.792969 0.238281 2.816406 2.996094 5.308594 5.289062 Z M 5.308594 5.289062 "/></g></g></g><g fill="#b1d4e0" fill-opacity="1"><g transform="translate(229.207735, 157.065859)"><g/></g></g><g fill="#b1d4e0" fill-opacity="1"><g transform="translate(233.870477, 162.484174)"><g><path d="M 3.339844 8.355469 C 4.835938 11.777344 7.832031 13.667969 11.386719 12.914062 L 10.21875 9.175781 C 8.394531 9.460938 7.09375 8.605469 6.386719 6.980469 C 5.476562 4.898438 6.511719 2.769531 8.96875 1.695312 C 11.441406 0.617188 13.695312 1.3125 14.601562 3.394531 C 15.3125 5.019531 15.066406 6.546875 13.601562 7.699219 L 15.550781 11.097656 C 18.519531 9.003906 19.191406 5.597656 17.667969 2.105469 C 15.773438 -2.230469 11.578125 -4.046875 7.285156 -2.171875 C 3 -0.300781 1.449219 4.019531 3.339844 8.355469 Z M 3.339844 8.355469 "/></g></g></g><g fill="#b1d4e0" fill-opacity="1"><g transform="translate(240.061434, 177.648499)"><g><path d="M 17.820312 1.023438 C 18.0625 2.304688 19.335938 3.195312 20.660156 2.941406 C 21.96875 2.691406 22.828125 1.398438 22.582031 0.117188 C 22.332031 -1.195312 21.0625 -2.085938 19.75 -1.835938 C 18.425781 -1.582031 17.570312 -0.285156 17.820312 1.023438 Z M 0.40625 2.144531 L 1.203125 6.316406 L 15.996094 3.503906 L 15.199219 -0.671875 Z M 0.40625 2.144531 "/></g></g></g><g fill="#b1d4e0" fill-opacity="1"><g transform="translate(241.762181, 185.752118)"><g><path d="M 12.890625 6.191406 L 15.117188 6.039062 L 15.078125 2.039062 L 0.0195312 2.183594 L 0.0625 6.429688 L 7.398438 6.359375 C 10.59375 6.328125 11.546875 7.84375 11.574219 11.039062 L 15.339844 11 C 15.320312 8.90625 14.175781 7 12.890625 6.191406 Z M 12.890625 6.191406 "/></g></g></g><g fill="#b1d4e0" fill-opacity="1"><g transform="translate(242.337371, 196.222748)"><g><path d="M -2.371094 8.679688 C -3.242188 12.3125 -1.988281 15.625 1.300781 17.167969 L 2.625 13.480469 C 0.996094 12.605469 0.472656 11.140625 0.886719 9.417969 C 1.417969 7.210938 3.527344 6.132812 6.136719 6.761719 C 8.757812 7.390625 10.136719 9.300781 9.605469 11.511719 C 9.191406 13.234375 8.074219 14.304688 6.214844 14.339844 L 5.71875 18.230469 C 9.351562 18.347656 11.941406 16.03125 12.828125 12.328125 C 13.933594 7.726562 11.679688 3.753906 7.121094 2.65625 C 2.578125 1.566406 -1.265625 4.078125 -2.371094 8.679688 Z M -2.371094 8.679688 "/></g></g></g><g fill="#b1d4e0" fill-opacity="1"><g transform="translate(238.144105, 212.050534)"><g><path d="M -0.96875 1.957031 L -2.855469 5.777344 L 17.316406 15.746094 L 19.203125 11.925781 Z M -0.96875 1.957031 "/></g></g></g><g fill="#b1d4e0" fill-opacity="1"><g transform="translate(235.166426, 219.37691)"><g><path d="M -4.320312 17.566406 C -0.222656 20.886719 3.613281 19.914062 6.308594 16.609375 C 9.242188 13.007812 9.054688 8.644531 5.21875 5.515625 C 1.378906 2.390625 -2.855469 3.039062 -5.925781 6.808594 C -8.0625 9.433594 -8.425781 12.636719 -6.691406 15.332031 L -3.804688 12.695312 C -4.480469 11.410156 -4.285156 10.058594 -3.332031 8.886719 C -2.0625 7.332031 -0.078125 6.796875 1.976562 8.242188 L -5.074219 16.894531 Z M 3.972656 14.742188 C 2.835938 16.140625 1.152344 16.511719 -0.5625 15.28125 L 3.847656 9.863281 C 5.351562 11.519531 5.238281 13.1875 3.972656 14.742188 Z M 3.972656 14.742188 "/></g></g></g><g clip-path="url(#17fa2d10df)"><path fill="#b1d4e0" d="M 106.257812 214.023438 C 104.605469 214.273438 102.960938 214.605469 101.335938 215.023438 C 99.714844 215.445312 98.070312 215.859375 96.542969 216.566406 C 95.015625 217.269531 93.539062 218.089844 92.214844 219.140625 L 92.269531 219.238281 C 93.882812 218.738281 95.421875 218.15625 96.96875 217.609375 C 98.523438 217.070312 100.023438 216.394531 101.589844 215.886719 C 103.15625 215.371094 104.746094 214.933594 106.363281 214.574219 C 107.972656 214.199219 109.605469 213.902344 111.253906 213.691406 L 111.242188 213.578125 C 109.578125 213.640625 107.914062 213.792969 106.257812 214.023438 Z M 97.964844 207.957031 C 99.664062 207.546875 101.410156 207.304688 103.167969 207.246094 C 104.925781 207.167969 106.703125 207.273438 108.453125 207.574219 L 108.476562 207.464844 C 106.75 207.015625 104.964844 206.757812 103.167969 206.683594 C 101.371094 206.628906 99.5625 206.761719 97.78125 207.078125 C 96.003906 207.398438 94.210938 207.816406 92.574219 208.621094 C 90.945312 209.414062 89.410156 210.425781 88.148438 211.71875 L 88.21875 211.8125 C 89.835938 211.023438 91.40625 210.277344 93.03125 209.648438 C 94.652344 209.03125 96.261719 208.363281 97.964844 207.957031 Z M 95.847656 201.136719 C 97.585938 200.820312 99.359375 200.664062 101.132812 200.679688 C 102.910156 200.675781 104.695312 200.839844 106.453125 201.1875 L 106.480469 201.078125 C 104.75 200.585938 102.964844 200.261719 101.160156 200.117188 C 99.347656 199.988281 97.523438 200.03125 95.714844 200.246094 C 93.910156 200.464844 92.082031 200.765625 90.382812 201.453125 C 88.683594 202.128906 87.0625 203.015625 85.675781 204.199219 L 85.734375 204.292969 C 87.429688 203.652344 89.074219 203.027344 90.757812 202.511719 C 92.4375 202.011719 94.109375 201.445312 95.847656 201.136719 Z M 278.703125 215.402344 C 277.433594 214.621094 275.984375 214.183594 274.554688 213.820312 C 273.121094 213.460938 271.65625 213.253906 270.1875 213.210938 C 268.71875 213.183594 267.253906 213.300781 265.832031 213.613281 L 265.851562 213.722656 C 267.289062 213.589844 268.730469 213.597656 270.148438 213.769531 C 271.566406 213.925781 272.960938 214.234375 274.300781 214.683594 C 275.648438 215.128906 276.890625 215.792969 278.160156 216.390625 C 279.433594 216.996094 280.65625 217.691406 281.9375 218.40625 L 282.015625 218.324219 C 281.136719 217.132812 279.96875 216.175781 278.703125 215.402344 Z M 277.035156 206.238281 C 275.230469 206.074219 273.421875 206.082031 271.632812 206.257812 C 269.84375 206.457031 268.082031 206.820312 266.378906 207.355469 L 266.410156 207.464844 C 268.144531 207.078125 269.910156 206.863281 271.671875 206.820312 C 273.429688 206.757812 275.191406 206.867188 276.921875 207.132812 C 278.660156 207.390625 280.332031 207.90625 282.011719 208.355469 C 283.695312 208.8125 285.34375 209.386719 287.046875 209.96875 L 287.101562 209.871094 C 285.691406 208.738281 284.058594 207.90625 282.355469 207.285156 C 280.648438 206.652344 278.828125 206.40625 277.035156 206.238281 Z M 289.675781 203.28125 L 289.640625 203.386719 C 287.757812 203.066406 285.925781 202.710938 284.078125 202.4375 C 282.238281 202.175781 280.40625 201.816406 278.539062 201.6875 C 276.675781 201.546875 274.800781 201.542969 272.925781 201.671875 C 271.050781 201.78125 269.179688 202.027344 267.332031 202.410156 L 267.304688 202.300781 C 269.121094 201.769531 270.984375 201.375 272.871094 201.109375 C 274.757812 200.867188 276.667969 200.757812 278.578125 200.789062 C 280.488281 200.824219 282.421875 200.898438 284.292969 201.332031 C 286.160156 201.761719 287.988281 202.371094 289.675781 203.28125 " fill-opacity="1" fill-rule="nonzero"/></g><g clip-path="url(#a31ca328db)"><path fill="#f87d98" d="M 195.402344 206.113281 C 194.773438 207.027344 194.175781 207.9375 193.503906 208.785156 C 192.8125 209.660156 192.066406 210.492188 191.308594 211.308594 C 190.90625 211.742188 190.429688 212.125 189.808594 212.203125 C 189.519531 212.242188 189.207031 212.253906 188.929688 212.171875 C 187.5625 211.777344 186.296875 211.15625 185.230469 210.195312 C 184.253906 209.320312 183.289062 208.433594 182.378906 207.496094 C 181.765625 206.867188 181.210938 206.164062 180.703125 205.445312 C 179.703125 204.03125 178.707031 202.613281 177.792969 201.144531 C 177.128906 200.078125 176.550781 198.957031 176.066406 197.78125 C 175.6875 196.867188 175.425781 195.921875 175.253906 194.96875 C 175.035156 193.726562 175.113281 192.476562 175.699219 191.316406 C 176.277344 190.160156 177.222656 189.445312 178.441406 189.085938 C 179.554688 188.761719 180.652344 188.828125 181.738281 189.222656 C 182.679688 189.566406 183.5 190.101562 184.226562 190.796875 C 185.40625 191.933594 186.296875 193.28125 187.023438 194.742188 C 187.148438 194.984375 187.214844 195.257812 187.3125 195.519531 C 187.332031 195.566406 187.375 195.605469 187.40625 195.648438 C 187.429688 195.601562 187.457031 195.558594 187.46875 195.511719 C 187.8125 194.382812 188.257812 193.300781 188.824219 192.265625 C 189.285156 191.421875 189.832031 190.640625 190.476562 189.917969 C 191.191406 189.117188 192.042969 188.515625 193.003906 188.070312 C 193.5625 187.8125 194.15625 187.671875 194.773438 187.582031 C 195.328125 187.503906 195.863281 187.554688 196.386719 187.671875 C 196.957031 187.800781 197.492188 188.058594 197.941406 188.453125 C 198.941406 189.328125 199.449219 190.46875 199.644531 191.765625 C 199.707031 192.1875 199.789062 192.621094 199.757812 193.042969 C 199.695312 193.910156 199.613281 194.785156 199.449219 195.636719 C 199.230469 196.804688 198.976562 197.96875 198.648438 199.109375 C 198.398438 199.96875 198.035156 200.792969 197.679688 201.613281 C 197.292969 202.507812 196.878906 203.390625 196.441406 204.257812 C 196.128906 204.882812 195.753906 205.476562 195.402344 206.113281 M 193.46875 204.503906 C 193.707031 204.097656 193.945312 203.695312 194.183594 203.285156 C 194.367188 202.972656 194.59375 202.671875 194.71875 202.335938 C 194.957031 201.667969 195.144531 200.984375 195.339844 200.304688 C 195.496094 199.757812 195.636719 199.207031 195.769531 198.65625 C 195.921875 198.019531 196.0625 197.375 196.203125 196.730469 C 196.292969 196.3125 196.367188 195.894531 196.445312 195.472656 C 196.453125 195.433594 196.421875 195.382812 196.410156 195.339844 C 196.363281 195.371094 196.28125 195.390625 196.269531 195.433594 C 196.078125 196.054688 195.875 196.675781 195.714844 197.308594 C 195.496094 198.179688 195.339844 199.066406 195.109375 199.933594 C 194.683594 201.5 193.941406 202.933594 193.226562 204.378906 C 192.972656 204.890625 192.730469 205.410156 192.488281 205.925781 C 192.464844 205.980469 192.484375 206.050781 192.484375 206.113281 C 192.519531 206.078125 192.5625 206.050781 192.585938 206.007812 C 192.871094 205.519531 193.152344 205.027344 193.46875 204.503906 M 181.167969 200.914062 C 180.851562 200.199219 180.492188 199.503906 180.226562 198.773438 C 179.914062 197.921875 179.683594 197.039062 179.417969 196.171875 C 179.292969 195.769531 179.175781 195.367188 179.042969 194.96875 C 179.019531 194.902344 178.929688 194.859375 178.871094 194.804688 C 178.847656 194.875 178.800781 194.949219 178.804688 195.019531 C 178.816406 195.269531 178.847656 195.519531 178.863281 195.769531 C 178.90625 196.503906 179.074219 197.210938 179.300781 197.90625 C 179.496094 198.511719 179.632812 199.140625 180.003906 199.683594 C 180.640625 200.609375 181.25 201.554688 181.878906 202.484375 C 181.917969 202.542969 182.003906 202.566406 182.066406 202.609375 C 182.054688 202.535156 182.054688 202.457031 182.019531 202.394531 C 181.75 201.910156 181.472656 201.425781 181.167969 200.914062 M 185.164062 208.46875 C 184.46875 207.746094 183.769531 207.03125 183.082031 206.304688 C 182.78125 205.984375 182.496094 205.644531 182.210938 205.304688 C 181.644531 204.636719 181.082031 203.960938 180.515625 203.292969 C 180.460938 203.230469 180.375 203.195312 180.304688 203.144531 C 180.328125 203.230469 180.335938 203.332031 180.382812 203.398438 C 180.703125 203.835938 181.015625 204.277344 181.359375 204.691406 C 182.074219 205.554688 182.789062 206.417969 183.535156 207.25 C 184.085938 207.859375 184.6875 208.421875 185.269531 209.003906 C 185.367188 209.101562 185.480469 209.183594 185.589844 209.265625 C 185.632812 209.292969 185.6875 209.300781 185.738281 209.316406 C 185.730469 209.257812 185.742188 209.1875 185.714844 209.148438 C 185.546875 208.929688 185.371094 208.714844 185.164062 208.46875 M 178.738281 192.335938 C 178.773438 192.320312 178.816406 192.3125 178.84375 192.289062 C 179.375 191.851562 179.972656 191.707031 180.65625 191.804688 C 181.558594 191.933594 182.304688 192.371094 182.980469 192.957031 C 183.722656 193.605469 184.296875 194.410156 184.890625 195.191406 C 184.914062 195.222656 184.945312 195.25 184.972656 195.277344 C 184.988281 195.230469 185.023438 195.175781 185.007812 195.144531 C 184.933594 194.988281 184.851562 194.835938 184.765625 194.6875 C 184.214844 193.753906 183.472656 192.980469 182.695312 192.242188 C 182.566406 192.117188 182.40625 192.007812 182.238281 191.9375 C 181.34375 191.570312 180.414062 191.386719 179.46875 191.695312 C 179.113281 191.8125 178.792969 192.050781 178.46875 192.25 C 178.417969 192.28125 178.425781 192.414062 178.410156 192.496094 C 178.488281 192.476562 178.566406 192.457031 178.644531 192.429688 C 178.667969 192.421875 178.6875 192.390625 178.738281 192.335938 M 186.578125 200.292969 C 186.222656 199.503906 185.863281 198.714844 185.5 197.925781 C 185.484375 197.890625 185.425781 197.871094 185.386719 197.84375 C 185.382812 197.898438 185.367188 197.957031 185.382812 198.003906 C 185.480469 198.304688 185.566406 198.609375 185.691406 198.898438 C 186.054688 199.722656 186.257812 200.589844 186.425781 201.46875 C 186.496094 201.84375 186.542969 202.222656 186.613281 202.597656 C 186.625 202.660156 186.699219 202.714844 186.742188 202.769531 C 186.78125 202.707031 186.832031 202.652344 186.855469 202.585938 C 186.902344 202.441406 186.917969 202.277344 186.984375 202.144531 C 187.128906 201.859375 187.101562 201.597656 186.984375 201.3125 C 186.84375 200.992188 186.734375 200.65625 186.578125 200.292969 M 183.566406 199.675781 C 183.71875 200 183.871094 200.332031 184.03125 200.65625 C 184.058594 200.707031 184.117188 200.746094 184.164062 200.789062 C 184.179688 200.726562 184.222656 200.660156 184.207031 200.605469 C 184.136719 200.285156 184.097656 199.949219 183.964844 199.65625 C 183.777344 199.25 183.554688 198.84375 183.28125 198.492188 C 182.5625 197.558594 181.8125 196.652344 181.066406 195.738281 C 181.015625 195.671875 180.925781 195.640625 180.855469 195.59375 C 180.882812 195.675781 180.886719 195.777344 180.9375 195.84375 C 181.335938 196.378906 181.769531 196.894531 182.144531 197.445312 C 182.628906 198.164062 183.074219 198.910156 183.566406 199.675781 M 192.023438 197.167969 C 191.980469 197.714844 191.9375 198.265625 191.902344 198.8125 C 191.898438 198.886719 191.945312 198.960938 191.96875 199.03125 C 192.027344 198.980469 192.109375 198.9375 192.140625 198.871094 C 192.1875 198.757812 192.191406 198.625 192.230469 198.507812 C 192.582031 197.386719 192.933594 196.269531 193.285156 195.148438 C 193.304688 195.074219 193.277344 194.988281 193.269531 194.90625 C 193.207031 194.953125 193.121094 194.984375 193.085938 195.046875 C 192.726562 195.730469 192.375 196.417969 192.023438 197.167969 M 192.453125 191.34375 C 193.160156 190.566406 193.96875 189.976562 195.074219 189.945312 C 195.125 189.941406 195.21875 189.820312 195.210938 189.765625 C 195.183594 189.5625 195.101562 189.347656 194.847656 189.402344 C 194.53125 189.46875 194.207031 189.546875 193.921875 189.691406 C 193.285156 190.015625 192.777344 190.511719 192.351562 191.082031 C 192.160156 191.335938 192.003906 191.617188 191.839844 191.890625 C 191.820312 191.921875 191.835938 191.976562 191.835938 192.023438 C 191.871094 192.007812 191.917969 192.007812 191.941406 191.980469 C 192.105469 191.78125 192.261719 191.578125 192.453125 191.34375 M 183.167969 195.925781 C 182.855469 195.59375 182.566406 195.238281 182.230469 194.933594 C 181.957031 194.695312 181.632812 194.511719 181.316406 194.324219 C 181.242188 194.28125 181.117188 194.320312 181.015625 194.320312 C 181.074219 194.398438 181.121094 194.484375 181.1875 194.550781 C 181.703125 195.085938 182.234375 195.605469 182.730469 196.160156 C 183.03125 196.492188 183.273438 196.878906 183.546875 197.234375 C 183.585938 197.289062 183.660156 197.316406 183.71875 197.355469 C 183.71875 197.289062 183.726562 197.222656 183.71875 197.160156 C 183.679688 196.703125 183.457031 196.320312 183.167969 195.925781 M 190.023438 203.203125 C 190.238281 202.738281 190.488281 202.285156 190.664062 201.800781 C 190.78125 201.476562 190.800781 201.117188 190.851562 200.769531 C 190.902344 200.40625 190.941406 200.042969 190.972656 199.675781 C 190.976562 199.621094 190.921875 199.554688 190.890625 199.496094 C 190.859375 199.550781 190.8125 199.597656 190.792969 199.65625 C 190.722656 199.882812 190.65625 200.113281 190.589844 200.34375 C 190.277344 201.441406 189.96875 202.535156 189.660156 203.632812 C 189.648438 203.671875 189.65625 203.71875 189.652344 203.761719 C 189.703125 203.746094 189.789062 203.746094 189.804688 203.710938 C 189.875 203.558594 189.929688 203.394531 190.023438 203.203125 M 189.746094 193.015625 C 190.136719 192.984375 190.34375 192.734375 190.488281 192.394531 C 190.855469 191.511719 191.363281 190.722656 192.027344 190.03125 C 192.125 189.929688 192.171875 189.777344 192.246094 189.652344 C 192.125 189.726562 191.980469 189.777344 191.886719 189.878906 C 191.453125 190.339844 191 190.792969 190.609375 191.292969 C 190.226562 191.789062 189.90625 192.339844 189.566406 192.867188 C 189.527344 192.925781 189.523438 193.011719 189.507812 193.085938 C 189.574219 193.074219 189.644531 193.058594 189.746094 193.015625 M 197.742188 192.210938 C 197.722656 192.160156 197.707031 192.109375 197.691406 192.058594 C 197.667969 192.101562 197.625 192.140625 197.621094 192.1875 C 197.59375 192.609375 197.59375 193.035156 197.550781 193.457031 C 197.460938 194.375 197.371094 195.289062 197.242188 196.203125 C 197.144531 196.90625 196.988281 197.601562 196.863281 198.296875 C 196.851562 198.363281 196.863281 198.429688 196.863281 198.496094 C 196.910156 198.441406 196.984375 198.394531 197 198.332031 C 197.1875 197.566406 197.394531 196.804688 197.546875 196.03125 C 197.652344 195.519531 197.667969 194.988281 197.742188 194.472656 C 197.847656 193.730469 197.84375 192.988281 197.742188 192.210938 M 196.265625 201.933594 C 195.984375 202.425781 195.671875 202.902344 195.425781 203.410156 C 195.171875 203.941406 194.984375 204.503906 194.769531 205.054688 C 194.746094 205.109375 194.757812 205.179688 194.753906 205.242188 C 194.792969 205.203125 194.851562 205.171875 194.875 205.125 C 195.21875 204.464844 195.5625 203.804688 195.894531 203.136719 C 196.195312 202.53125 196.476562 201.914062 196.765625 201.304688 C 196.785156 201.261719 196.777344 201.207031 196.78125 201.160156 C 196.746094 201.199219 196.707031 201.230469 196.679688 201.273438 C 196.539062 201.472656 196.402344 201.671875 196.265625 201.933594 M 190.054688 198.34375 C 189.929688 198.734375 189.804688 199.125 189.691406 199.519531 C 189.671875 199.582031 189.714844 199.664062 189.730469 199.734375 C 189.777344 199.683594 189.84375 199.636719 189.867188 199.574219 C 190.046875 199.113281 190.210938 198.648438 190.394531 198.1875 C 190.617188 197.621094 190.859375 197.0625 191.078125 196.496094 C 191.105469 196.425781 191.046875 196.316406 191.027344 196.226562 C 190.96875 196.28125 190.898438 196.328125 190.855469 196.390625 C 190.453125 196.964844 190.304688 197.644531 190.054688 198.34375 M 183.011719 201.222656 C 183.15625 201.429688 183.300781 201.640625 183.449219 201.84375 C 183.472656 201.875 183.53125 201.878906 183.574219 201.898438 C 183.566406 201.855469 183.574219 201.808594 183.554688 201.769531 C 183.46875 201.589844 183.386719 201.410156 183.289062 201.234375 C 182.867188 200.460938 182.445312 199.691406 182.015625 198.921875 C 181.941406 198.789062 181.820312 198.679688 181.71875 198.5625 C 181.757812 198.722656 181.765625 198.898438 181.839844 199.042969 C 182.210938 199.765625 182.601562 200.476562 183.011719 201.222656 M 177.816406 195.183594 C 177.839844 194.730469 177.863281 194.277344 177.871094 193.820312 C 177.871094 193.75 177.78125 193.675781 177.734375 193.605469 C 177.679688 193.660156 177.597656 193.710938 177.574219 193.777344 C 177.433594 194.246094 177.386719 194.730469 177.457031 195.214844 C 177.496094 195.476562 177.609375 195.726562 177.699219 195.976562 C 177.714844 196.019531 177.785156 196.046875 177.828125 196.082031 C 177.84375 196.03125 177.878906 195.980469 177.875 195.929688 C 177.863281 195.703125 177.839844 195.472656 177.816406 195.183594 M 194.390625 194.101562 C 194.273438 194.609375 194.160156 195.113281 194.046875 195.621094 C 194.035156 195.671875 194.027344 195.71875 194.015625 195.769531 C 194.070312 195.734375 194.148438 195.710938 194.167969 195.660156 C 194.257812 195.449219 194.332031 195.234375 194.398438 195.015625 C 194.492188 194.714844 194.601562 194.417969 194.65625 194.109375 C 194.679688 193.972656 194.597656 193.816406 194.5625 193.667969 C 194.316406 193.730469 194.460938 193.933594 194.390625 194.101562 M 192.976562 193.792969 C 192.988281 193.757812 193.007812 193.722656 193.015625 193.683594 C 193.03125 193.625 193.039062 193.558594 193.050781 193.496094 C 193.007812 193.53125 192.957031 193.558594 192.921875 193.597656 C 192.738281 193.800781 192.546875 193.992188 192.382812 194.210938 C 192.199219 194.449219 192.039062 194.703125 191.882812 194.960938 C 191.851562 195.015625 191.894531 195.113281 191.90625 195.191406 C 191.964844 195.152344 192.042969 195.125 192.082031 195.070312 C 192.371094 194.65625 192.65625 194.238281 192.976562 193.792969 M 197.1875 190.417969 C 196.941406 190.167969 196.703125 189.917969 196.449219 189.683594 C 196.394531 189.628906 196.285156 189.632812 196.203125 189.613281 C 196.191406 189.703125 196.164062 189.796875 196.171875 189.882812 C 196.175781 189.957031 196.203125 190.054688 196.257812 190.089844 C 196.535156 190.265625 196.828125 190.425781 197.117188 190.585938 C 197.121094 190.589844 197.164062 190.515625 197.1875 190.417969 M 189.960938 208.097656 C 189.925781 208.050781 189.886719 208.007812 189.851562 207.960938 C 189.652344 208.144531 189.421875 208.304688 189.269531 208.519531 C 189.199219 208.617188 189.265625 208.832031 189.3125 208.980469 C 189.34375 209.085938 189.433594 209.109375 189.503906 208.96875 C 189.636719 208.683594 189.789062 208.40625 189.960938 208.097656 M 185.597656 207.105469 C 185.425781 207.085938 185.382812 207.167969 185.480469 207.292969 C 185.6875 207.558594 185.90625 207.816406 186.128906 208.070312 C 186.164062 208.113281 186.226562 208.128906 186.273438 208.15625 C 186.285156 208.097656 186.304688 208.039062 186.300781 207.980469 C 186.277344 207.539062 185.992188 207.304688 185.597656 207.105469 M 177.324219 190.789062 C 176.941406 190.996094 176.792969 191.390625 176.59375 191.742188 C 176.574219 191.773438 176.621094 191.847656 176.648438 191.894531 C 176.652344 191.902344 176.71875 191.898438 176.726562 191.878906 C 176.941406 191.527344 177.148438 191.171875 177.324219 190.789062 M 183.011719 191.253906 C 183.105469 191.285156 183.195312 191.316406 183.285156 191.347656 C 183.230469 191.269531 183.191406 191.167969 183.117188 191.117188 C 182.730469 190.855469 182.332031 190.605469 181.9375 190.355469 C 181.90625 190.339844 181.855469 190.355469 181.8125 190.359375 C 181.84375 190.386719 181.867188 190.421875 181.898438 190.445312 C 182.257812 190.707031 182.621094 190.964844 183.011719 191.253906 M 180.738281 193.296875 C 180.902344 193.316406 181.070312 193.34375 181.234375 193.351562 C 181.296875 193.355469 181.359375 193.3125 181.421875 193.285156 C 181.421875 193.285156 181.414062 193.242188 181.402344 193.222656 C 181.3125 193.097656 180.738281 192.953125 180.613281 193.054688 C 180.503906 193.140625 180.335938 193.339844 180.363281 193.386719 C 180.480469 193.582031 180.582031 193.324219 180.738281 193.296875 M 196.082031 193.140625 C 196.082031 193.070312 196.085938 192.996094 196.078125 192.925781 C 196.074219 192.902344 196.027344 192.867188 196 192.867188 C 195.96875 192.863281 195.902344 192.878906 195.898438 192.898438 C 195.8125 193.277344 195.730469 193.652344 195.652344 194.03125 C 195.648438 194.070312 195.699219 194.121094 195.722656 194.164062 C 195.757812 194.121094 195.816406 194.085938 195.832031 194.039062 C 195.910156 193.753906 195.976562 193.460938 196.082031 193.140625 M 179.230469 190.789062 C 179.273438 190.753906 179.3125 190.722656 179.355469 190.691406 C 179.335938 190.671875 179.3125 190.632812 179.304688 190.636719 C 179.046875 190.730469 178.792969 190.828125 178.539062 190.933594 C 178.515625 190.941406 178.507812 190.996094 178.492188 191.03125 C 178.535156 191.035156 178.582031 191.046875 178.617188 191.03125 C 178.8125 190.964844 179.007812 190.890625 179.230469 190.789062 M 195.1875 191.5625 C 195.136719 191.613281 195.0625 191.65625 195.042969 191.714844 C 195.019531 191.804688 195.027344 191.90625 195.039062 192 C 195.042969 192.042969 195.097656 192.078125 195.125 192.117188 C 195.175781 192.039062 195.257812 191.960938 195.273438 191.875 C 195.289062 191.785156 195.238281 191.6875 195.1875 191.5625 M 187.410156 210.542969 C 187.511719 210.59375 187.609375 210.652344 187.714844 210.695312 C 187.746094 210.707031 187.792969 210.691406 187.824219 210.675781 C 187.835938 210.671875 187.84375 210.609375 187.832031 210.597656 C 187.707031 210.503906 187.585938 210.410156 187.449219 210.332031 C 187.425781 210.316406 187.351562 210.378906 187.304688 210.402344 C 187.328125 210.4375 187.355469 210.476562 187.410156 210.542969 M 185.871094 206.082031 C 185.832031 206.277344 185.972656 206.246094 186.074219 206.234375 C 186.128906 206.226562 186.183594 206.171875 186.234375 206.140625 C 186.15625 206.109375 186.078125 206.078125 185.996094 206.054688 C 185.96875 206.046875 185.933594 206.054688 185.871094 206.082031 M 176.496094 195.585938 C 176.464844 195.632812 176.433594 195.675781 176.402344 195.71875 C 176.429688 195.738281 176.457031 195.753906 176.484375 195.773438 C 176.5 195.722656 176.511719 195.667969 176.496094 195.585938 M 189.59375 210.574219 C 189.613281 210.53125 189.632812 210.492188 189.652344 210.449219 C 189.625 210.4375 189.597656 210.421875 189.570312 210.410156 C 189.558594 210.464844 189.542969 210.519531 189.59375 210.574219 Z M 189.59375 210.574219 " fill-opacity="1" fill-rule="nonzero"/></g></svg>