<svg xmlns="http://www.w3.org/2000/svg" xmlns:xlink="http://www.w3.org/1999/xlink" width="500" zoomAndPan="magnify" viewBox="0 0 375 374.999991" height="500" preserveAspectRatio="xMidYMid meet" version="1.0"><defs><clipPath id="2913237e27"><path d="M 77.65625 40 L 297 40 L 297 318 L 77.65625 318 Z M 77.65625 40 " clip-rule="nonzero"/></clipPath></defs><g clip-path="url(#2913237e27)"><path fill="#b1d4e0" d="M 125.390625 317.738281 C 123.132812 317.535156 118.925781 316.984375 116.042969 316.523438 C 100.214844 313.960938 91.957031 309.601562 84.933594 300.105469 C 79.460938 292.707031 77.679688 285.183594 77.707031 269.597656 C 77.734375 253.199219 80.15625 239.996094 85.546875 226.847656 C 89.5625 217.054688 98.382812 207.945312 108.601562 203.046875 C 121 197.101562 123.265625 196.132812 124.753906 196.132812 C 126.632812 196.132812 127.632812 197 127.632812 198.628906 C 127.632812 199.90625 126.367188 201.113281 125.023438 201.113281 C 124.605469 201.113281 122.636719 201.945312 120.648438 202.964844 C 118.664062 203.984375 114.511719 206.03125 111.429688 207.511719 C 98.03125 213.945312 91.65625 222.117188 86.75 239.171875 C 83.816406 249.371094 82.519531 260.84375 82.894531 273.335938 C 83.269531 285.84375 84.988281 291.972656 89.796875 297.976562 C 96.84375 306.765625 104.234375 309.898438 123.890625 312.414062 C 130.847656 313.304688 183.957031 312.835938 202.90625 311.722656 C 216.53125 310.917969 215.878906 311 239.382812 307.113281 C 251.878906 305.046875 257.699219 303.410156 266.46875 299.503906 C 272.40625 296.855469 274.957031 295.277344 278.464844 292.078125 C 284.644531 286.441406 288.785156 278.445312 290.527344 268.773438 C 291.304688 264.464844 291.207031 253.851562 290.34375 248.476562 C 288.96875 239.933594 285.230469 230.5625 278.980469 220.003906 C 277.21875 217.019531 272.910156 213.574219 268.566406 211.664062 C 266.5625 210.785156 264.085938 209.5625 263.058594 208.949219 C 260.984375 207.707031 252.554688 204.945312 249.523438 204.507812 C 246.855469 204.125 245.929688 202.875 246.417969 200.320312 C 246.613281 199.3125 247.140625 198.191406 247.597656 197.832031 C 248.507812 197.105469 248.464844 197.84375 249.355469 166.386719 C 249.574219 158.582031 250.027344 147.097656 250.367188 140.859375 C 251.601562 117.992188 251.992188 96.933594 251.480469 80.953125 C 250.65625 55.179688 249.761719 50.574219 244.84375 46.828125 C 242.339844 44.921875 241.328125 44.75 239.574219 45.9375 C 232.859375 50.484375 225.96875 71.84375 222.160156 99.960938 C 218.964844 123.523438 218.9375 124.003906 218.613281 160.023438 C 218.3125 193.546875 218.15625 196.617188 216.660156 199.773438 C 215.492188 202.226562 214.769531 202.375 202.496094 202.636719 C 189.972656 202.90625 173.746094 202.265625 169.378906 201.328125 C 161.652344 199.675781 157.3125 195.492188 155.304688 187.765625 C 154.257812 183.726562 153.492188 175.011719 152.152344 151.929688 C 151.125 134.25 150.882812 128.632812 150.476562 113.121094 C 149.648438 81.417969 148.574219 68.714844 146.050781 60.707031 C 144.34375 55.285156 140.210938 51.277344 136.335938 51.277344 C 133.414062 51.277344 128.8125 54.996094 125.253906 60.238281 C 117.953125 70.984375 115.699219 83.8125 117.421875 104.820312 C 118.707031 120.488281 119.300781 124.289062 123.914062 146.328125 C 126.238281 157.417969 126.070312 155.464844 126.742188 179.324219 C 126.957031 186.847656 126.949219 192.488281 126.734375 192.910156 C 125.613281 195.078125 122.9375 194.597656 122.265625 192.109375 C 121.746094 190.199219 120.996094 165.558594 121.417969 164.378906 C 121.847656 163.175781 120.554688 155.378906 117.488281 140.6875 C 114.078125 124.355469 112.789062 114.875 111.832031 99.082031 C 110.964844 84.800781 112.867188 72.457031 117.292969 63.605469 C 120.785156 56.625 126.542969 49.972656 131.375 47.335938 C 139.289062 43.023438 148.902344 49.824219 151.703125 61.703125 C 153.9375 71.199219 154.71875 81.027344 155.46875 109.179688 C 155.882812 124.804688 157.941406 165.589844 158.8125 175.378906 C 160.335938 192.59375 162.6875 195.675781 175.300781 196.984375 C 181.046875 197.578125 211.40625 197.6875 211.980469 197.113281 C 212.949219 196.144531 213.238281 188.570312 213.226562 164.171875 C 213.21875 150.132812 213.402344 135.753906 213.632812 132.214844 C 214.511719 118.6875 217.234375 95.898438 219.28125 84.894531 C 222.019531 70.175781 226.605469 55.550781 230.578125 48.871094 C 236.410156 39.066406 242.472656 37.488281 249.300781 44 C 254.351562 48.808594 255.476562 53.488281 256.40625 73.480469 C 257.160156 89.664062 256.808594 117.664062 255.582031 139.269531 C 255.355469 143.265625 254.980469 152.789062 254.75 160.4375 C 254.519531 168.085938 254.152344 180.035156 253.933594 186.992188 C 253.714844 193.949219 253.671875 199.78125 253.839844 199.949219 C 254.007812 200.117188 255.800781 200.734375 257.824219 201.320312 C 259.851562 201.90625 263.117188 203.207031 265.089844 204.214844 C 267.0625 205.21875 270.257812 206.792969 272.203125 207.714844 C 277.652344 210.296875 281.027344 213.382812 284.097656 218.585938 C 289.980469 228.5625 293.964844 238.675781 295.289062 246.980469 C 297.378906 260.097656 296.078125 273.078125 291.742188 282.324219 C 285.722656 295.167969 276.886719 301.960938 258.078125 308.226562 C 253.054688 309.898438 249.984375 310.574219 239.589844 312.304688 C 223.757812 314.9375 216.757812 315.941406 210.507812 316.472656 C 202.457031 317.160156 184.441406 317.816406 177.484375 317.667969 C 173.941406 317.597656 161.699219 317.664062 150.273438 317.824219 C 138.710938 317.984375 127.679688 317.945312 125.390625 317.738281 Z M 182.882812 275.824219 L 182.882812 282.480469 C 182.882812 289.65625 182.527344 291.34375 180.757812 292.582031 C 179.472656 293.480469 178.492188 293.433594 177.484375 292.429688 C 176.488281 291.4375 176.457031 290.921875 177.277344 288.964844 C 177.734375 287.875 177.898438 285.890625 177.894531 281.546875 C 177.886719 278.285156 177.75 275.421875 177.582031 275.183594 C 177.414062 274.941406 176.4375 274.429688 175.40625 274.042969 C 173.007812 273.140625 170.605469 270.921875 169.582031 268.667969 C 168.609375 266.519531 168.5 263.273438 169.382812 262.542969 C 169.726562 262.257812 170.007812 261.402344 170.007812 260.632812 C 170.007812 258.53125 171.316406 257.890625 176.382812 257.519531 C 178.703125 257.351562 183.457031 256.988281 186.945312 256.71875 C 194.398438 256.140625 195.824219 256.3125 196.992188 257.949219 C 197.867188 259.183594 198.117188 261.246094 197.472656 261.9375 C 197.265625 262.15625 196.785156 263.445312 196.398438 264.804688 C 194.378906 271.878906 190.074219 275.820312 184.363281 275.820312 L 182.882812 275.820312 Z M 187.96875 269.527344 C 189.828125 268.207031 190.871094 265.753906 190.539062 263.511719 L 190.253906 261.625 L 186.671875 261.925781 C 184.703125 262.089844 180.992188 262.351562 178.429688 262.511719 C 175.863281 262.671875 173.679688 262.886719 173.570312 262.996094 C 173.242188 263.320312 174.039062 266.234375 174.746094 267.316406 C 175.671875 268.730469 177.554688 269.613281 180.996094 270.25 C 184.378906 270.878906 186.3125 270.6875 187.96875 269.527344 Z M 128.367188 264.617188 C 123.355469 263.113281 122.21875 259.003906 125.765625 255.246094 C 126.972656 253.964844 127.382812 253.769531 128.351562 254.007812 C 129.753906 254.355469 130.351562 254.351562 132.132812 253.996094 C 133.867188 253.648438 135.3125 254.378906 135.953125 255.925781 C 136.609375 257.507812 136.140625 259.3125 134.5625 261.273438 C 133.835938 262.171875 132.910156 263.386719 132.5 263.96875 C 131.707031 265.085938 130.53125 265.273438 128.367188 264.617188 Z M 225.136719 262.113281 C 223.511719 261.230469 221.9375 259.148438 221.9375 257.867188 C 221.9375 257.464844 222.542969 256.488281 223.285156 255.695312 C 224.394531 254.515625 225.152344 254.152344 227.542969 253.675781 C 231.34375 252.914062 233.015625 253.394531 234.191406 255.59375 L 235.019531 257.152344 L 233.980469 259.09375 C 233.410156 260.160156 232.441406 261.402344 231.828125 261.847656 C 230.207031 263.035156 227.128906 263.167969 225.136719 262.113281 Z M 225.136719 262.113281 " fill-opacity="1" fill-rule="evenodd"/></g></svg>