<svg xmlns="http://www.w3.org/2000/svg" xmlns:xlink="http://www.w3.org/1999/xlink" width="500" zoomAndPan="magnify" viewBox="0 0 375 374.999991" height="500" preserveAspectRatio="xMidYMid meet" version="1.0"><defs><g/><clipPath id="156b754182"><path d="M 369.765625 150 L 375 150 L 375 190 L 369.765625 190 Z M 369.765625 150 " clip-rule="nonzero"/></clipPath><clipPath id="3762ae208b"><path d="M 127 37 L 231 37 L 231 142 L 127 142 Z M 127 37 " clip-rule="nonzero"/></clipPath><clipPath id="421339965a"><path d="M 14.226562 81.605469 L 209.160156 21.164062 L 251.769531 158.59375 L 56.835938 219.035156 Z M 14.226562 81.605469 " clip-rule="nonzero"/></clipPath><clipPath id="d80e66acae"><path d="M 14.226562 81.605469 L 209.160156 21.164062 L 251.769531 158.59375 L 56.835938 219.035156 Z M 14.226562 81.605469 " clip-rule="nonzero"/></clipPath><clipPath id="a719c9692c"><path d="M 14.226562 81.605469 L 209.160156 21.164062 L 251.769531 158.59375 L 56.835938 219.035156 Z M 14.226562 81.605469 " clip-rule="nonzero"/></clipPath><clipPath id="f45b78464d"><path d="M 53 98 L 146 98 L 146 215 L 53 215 Z M 53 98 " clip-rule="nonzero"/></clipPath><clipPath id="2912e262cd"><path d="M 14.226562 81.605469 L 209.160156 21.164062 L 251.769531 158.59375 L 56.835938 219.035156 Z M 14.226562 81.605469 " clip-rule="nonzero"/></clipPath><clipPath id="6b61cb1473"><path d="M 14.226562 81.605469 L 209.160156 21.164062 L 251.769531 158.59375 L 56.835938 219.035156 Z M 14.226562 81.605469 " clip-rule="nonzero"/></clipPath><clipPath id="627dc11f9f"><path d="M 14.226562 81.605469 L 209.160156 21.164062 L 251.769531 158.59375 L 56.835938 219.035156 Z M 14.226562 81.605469 " clip-rule="nonzero"/></clipPath><clipPath id="0381514a11"><path d="M 60.417969 243.132812 L 337.980469 243.132812 L 337.980469 269.664062 L 60.417969 269.664062 Z M 60.417969 243.132812 " clip-rule="nonzero"/></clipPath><clipPath id="dd7dc97106"><path d="M 182.003906 226.300781 L 215.679688 226.300781 L 215.679688 259.976562 L 182.003906 259.976562 Z M 182.003906 226.300781 " clip-rule="nonzero"/></clipPath></defs><g clip-path="url(#156b754182)"><path fill="#1e1a1b" d="M 465.90625 186.128906 C 457.816406 188.992188 446.054688 184.277344 445.742188 174.71875 C 470.292969 163.246094 459.824219 141.285156 445.253906 155.035156 C 436.316406 143.078125 418.296875 157.046875 443.183594 174.121094 C 442.847656 184.863281 427.789062 190.695312 419.71875 184.4375 C 419.347656 184.09375 419.015625 183.710938 418.726562 183.292969 C 417.394531 181.785156 415.886719 183.78125 417.097656 185.09375 C 424.203125 193.78125 440.457031 189.863281 444.539062 179.898438 C 448.125 187.59375 457.835938 191.375 465.824219 189.261719 C 468.152344 188.503906 473.421875 186.394531 471.800781 183.292969 C 470.105469 181.390625 469.03125 185.417969 465.90625 186.128906 Z M 428.683594 169.023438 C 428.695312 169.039062 428.707031 169.054688 428.714844 169.070312 C 429.78125 170.984375 429.621094 171.5 429.320312 171.753906 C 429.210938 171.851562 429.082031 171.898438 428.933594 171.894531 C 428.527344 171.894531 428.082031 171.535156 427.835938 171.332031 C 427.820312 171.316406 427.804688 171.300781 427.789062 171.285156 C 418.597656 160.996094 404.882812 155.457031 385.855469 154.359375 C 385.742188 154.355469 385.644531 154.308594 385.5625 154.226562 C 385.480469 154.140625 385.441406 154.039062 385.4375 153.921875 C 385.4375 153.804688 385.476562 153.703125 385.554688 153.617188 C 385.632812 153.53125 385.730469 153.484375 385.847656 153.476562 C 393.15625 152.886719 401.707031 153.964844 409.3125 156.445312 C 415.390625 158.429688 423.683594 162.21875 428.683594 169.023438 Z M 370.4375 167.609375 C 370.328125 167.644531 370.222656 167.636719 370.117188 167.585938 C 370.015625 167.539062 369.941406 167.460938 369.898438 167.355469 C 369.855469 167.25 369.855469 167.140625 369.894531 167.035156 C 369.933594 166.925781 370.003906 166.847656 370.105469 166.792969 C 384.765625 159.214844 411.484375 161.523438 424.046875 171.449219 C 426.066406 173.226562 426.03125 173.707031 425.824219 174.046875 C 425.691406 174.257812 425.5 174.351562 425.257812 174.332031 C 424.925781 174.332031 424.519531 174.183594 424.136719 174.027344 C 424.113281 174.019531 424.09375 174.007812 424.078125 173.996094 C 406.835938 163.75 389.289062 161.660156 370.4375 167.609375 Z M 420.960938 177.9375 C 404.855469 173.347656 392.511719 173.914062 379.683594 179.839844 C 379.582031 179.886719 379.476562 179.894531 379.371094 179.859375 C 379.261719 179.824219 379.179688 179.761719 379.121094 179.660156 C 379.0625 179.5625 379.046875 179.460938 379.070312 179.347656 C 379.09375 179.234375 379.148438 179.148438 379.242188 179.078125 C 388.707031 172.042969 409.613281 170.28125 420.667969 175.589844 C 422.316406 176.550781 422.566406 177.027344 422.4375 177.453125 C 422.261719 178.03125 421.445312 177.976562 421.050781 177.953125 C 421.023438 177.949219 420.992188 177.945312 420.960938 177.9375 Z M 503.6875 153.476562 C 503.800781 153.484375 503.898438 153.53125 503.976562 153.617188 C 504.058594 153.703125 504.097656 153.804688 504.09375 153.921875 C 504.09375 154.039062 504.050781 154.140625 503.972656 154.226562 C 503.890625 154.308594 503.792969 154.355469 503.675781 154.359375 C 484.648438 155.457031 470.933594 160.996094 461.746094 171.285156 C 461.730469 171.300781 461.714844 171.320312 461.695312 171.332031 C 461.449219 171.535156 461.003906 171.894531 460.597656 171.894531 C 460.453125 171.898438 460.324219 171.851562 460.210938 171.753906 C 459.914062 171.5 459.753906 170.984375 460.820312 169.070312 C 460.828125 169.054688 460.835938 169.039062 460.847656 169.023438 C 465.847656 162.21875 474.144531 158.429688 480.21875 156.445312 C 487.824219 153.964844 496.378906 152.886719 503.6875 153.476562 Z M 519.632812 167.355469 C 519.589844 167.460938 519.519531 167.539062 519.414062 167.589844 C 519.3125 167.636719 519.207031 167.644531 519.097656 167.609375 C 500.242188 161.664062 482.695312 163.75 465.457031 174 C 465.4375 174.007812 465.417969 174.019531 465.398438 174.027344 C 465.015625 174.183594 464.609375 174.332031 464.277344 174.332031 C 464.03125 174.351562 463.84375 174.257812 463.710938 174.046875 C 463.503906 173.707031 463.464844 173.226562 465.46875 171.464844 C 478.050781 161.523438 504.769531 159.214844 519.429688 166.792969 C 519.53125 166.847656 519.601562 166.925781 519.640625 167.035156 C 519.679688 167.140625 519.675781 167.25 519.632812 167.355469 Z M 510.292969 179.078125 C 510.382812 179.148438 510.441406 179.234375 510.464844 179.347656 C 510.488281 179.457031 510.46875 179.5625 510.414062 179.660156 C 510.355469 179.761719 510.273438 179.824219 510.164062 179.859375 C 510.054688 179.894531 509.949219 179.886719 509.847656 179.835938 C 497.023438 173.914062 484.675781 173.34375 468.570312 177.9375 C 468.542969 177.945312 468.511719 177.949219 468.480469 177.953125 C 468.089844 177.980469 467.273438 178.03125 467.097656 177.453125 C 466.96875 177.027344 467.214844 176.550781 468.835938 175.605469 C 479.921875 170.28125 500.828125 172.042969 510.292969 179.078125 Z M 510.292969 179.078125 " fill-opacity="1" fill-rule="nonzero"/></g><g clip-path="url(#3762ae208b)"><g clip-path="url(#421339965a)"><g clip-path="url(#d80e66acae)"><g clip-path="url(#a719c9692c)"><path fill="#ffffff" d="M 131.070312 86.894531 C 126.015625 71.070312 124.90625 59.175781 139.160156 47.976562 C 143.8125 44.15625 148.96875 41.011719 154.386719 38.402344 C 156.058594 37.65625 157.917969 37.507812 159.707031 37.214844 C 170.90625 36.851562 181.605469 41.914062 191.460938 46.734375 C 208.148438 55.289062 221.582031 69.582031 229.273438 86.675781 C 229.902344 88.117188 230.386719 89.625 230.582031 91.199219 C 230.632812 91.730469 231.109375 92.285156 230.808594 92.75 C 230.230469 93.636719 229.679688 94.601562 228.585938 94.996094 C 227.273438 95.46875 225.949219 95.917969 224.566406 96.148438 C 209.589844 98.050781 194.679688 93.398438 180.507812 89.054688 C 180.011719 89.058594 180.480469 89.773438 180.550781 90.027344 C 184.097656 100.277344 183.515625 111.46875 182.59375 122.132812 C 182.253906 123.695312 181.308594 135.921875 179.964844 135.140625 C 179.253906 135.101562 179.601562 134.15625 179.570312 133.6875 C 180.871094 118.875 180.730469 103.667969 176.746094 89.25 C 176.488281 88.546875 176.222656 87.671875 175.523438 87.300781 C 174.621094 86.953125 173.71875 86.605469 172.8125 86.273438 C 172.570312 86.183594 172.40625 86.355469 172.457031 86.625 C 174.5625 97.210938 175.15625 108.035156 174.28125 118.785156 C 174.089844 123.535156 173.492188 128.289062 173.71875 133.046875 C 173.988281 134.628906 172.949219 134.421875 171.765625 134.796875 C 169.464844 135.339844 167.203125 136.019531 165.011719 136.910156 C 163.792969 137.425781 163.640625 137.375 163.007812 136.1875 C 160.007812 130.570312 156.910156 125.003906 154.3125 119.183594 C 148.859375 107.628906 144.996094 95.273438 144.0625 82.484375 C 143.847656 78.835938 143.554688 75.050781 144.582031 71.496094 C 144.75 71 144.714844 70.589844 144.269531 70.257812 C 144.15625 70.175781 144.066406 70.054688 143.988281 69.941406 C 143.808594 69.746094 143.984375 69.347656 144.273438 69.523438 C 160.945312 79 178.921875 85.71875 197.5 90.378906 C 205.335938 92.253906 213.339844 94.042969 221.445312 93.808594 C 223.34375 93.734375 225.234375 93.546875 227.050781 92.945312 C 228.214844 92.566406 228.355469 92.332031 228.179688 91.15625 C 227.402344 87.242188 225.4375 83.59375 223.347656 80.230469 C 210.164062 59.371094 187.546875 44.089844 163.050781 40.558594 C 157.5 39.917969 152.6875 43.011719 148.179688 45.8125 C 144.527344 47.285156 141.460938 49.851562 138.488281 52.414062 C 134.023438 56.425781 130.054688 61.597656 129.953125 67.84375 C 129.75 78.238281 133.464844 88.238281 137.164062 97.796875 C 142.164062 110.089844 147.53125 122.230469 152.179688 134.664062 C 152.925781 136.601562 153.652344 138.546875 154.433594 140.464844 C 154.527344 140.703125 154.558594 140.957031 154.332031 141.160156 C 153.984375 141.476562 153.566406 141.4375 153.359375 141.011719 C 152.953125 140.175781 152.582031 139.324219 152.214844 138.46875 C 148.949219 130.839844 145.832031 123.148438 142.472656 115.558594 C 138.445312 106.03125 134.042969 96.871094 131.070312 86.898438 Z M 131.070312 86.894531 " fill-opacity="1" fill-rule="nonzero"/></g></g></g></g><g clip-path="url(#f45b78464d)"><g clip-path="url(#2912e262cd)"><g clip-path="url(#6b61cb1473)"><g clip-path="url(#627dc11f9f)"><path fill="#ffffff" d="M 58.203125 206.339844 C 58.695312 208.125 59.367188 209.71875 60.285156 211.242188 C 60.933594 212.230469 61.246094 212.332031 62.332031 211.9375 C 72.410156 202.984375 84.015625 194.585938 90.90625 182.707031 C 94.703125 175.527344 95.816406 167.351562 96.296875 159.347656 C 97.164062 147.316406 97.082031 135.089844 99.503906 123.238281 C 100.996094 117.402344 104.722656 111.59375 110.210938 108.878906 C 110.921875 108.609375 112.699219 108.828125 111.691406 109.863281 C 110.183594 111.121094 108.410156 112.046875 107.164062 113.621094 C 107.003906 113.828125 106.589844 114.160156 106.859375 114.433594 C 109.289062 116.65625 111.835938 118.746094 113.988281 121.253906 C 122.378906 130.839844 131.859375 139.683594 138.457031 150.65625 C 139.0625 151.238281 138.179688 151.65625 137.765625 152.023438 C 135.144531 154.082031 132.671875 156.308594 130.324219 158.671875 C 129.851562 159.128906 129.324219 159.230469 128.746094 158.96875 C 125.140625 157.226562 121.726562 155.097656 118.207031 153.183594 C 115.1875 151.46875 112.15625 149.78125 109.207031 147.945312 C 106.269531 145.949219 103.828125 143.335938 101.167969 141.003906 C 100.476562 140.132812 99.949219 140.207031 100.054688 141.382812 C 100.121094 142.558594 99.375 144.59375 100.355469 145.390625 C 101.695312 146.582031 103.023438 147.777344 104.429688 148.886719 C 110.410156 153.679688 116.457031 158.382812 122.855469 162.601562 C 123.230469 162.976562 124.644531 163.398438 124.386719 163.898438 C 124.097656 164.242188 123.640625 163.789062 123.324219 163.6875 C 114.960938 159.46875 107.039062 154.242188 99.773438 148.464844 C 99.527344 148.554688 99.582031 148.8125 99.570312 149.019531 C 99.332031 154.457031 99.152344 159.894531 98.535156 165.304688 C 96.859375 186.6875 84.4375 194.773438 69.839844 207.945312 C 66.796875 210.539062 61.925781 217.4375 58.128906 212.304688 C 51.3125 201.203125 54.535156 187.402344 54.460938 175.078125 C 55.207031 153.765625 54.160156 131.164062 64.085938 111.632812 C 66.84375 106.855469 70.621094 101.125 76.347656 99.890625 C 86.460938 98.640625 96.757812 97.425781 106.933594 98.496094 C 111.417969 99.160156 113.914062 103.292969 116.554688 106.539062 C 123.191406 115.210938 128.886719 124.550781 135.164062 133.476562 C 137.890625 137.53125 141.457031 140.894531 144.402344 144.773438 C 144.632812 145.167969 145.199219 145.589844 144.980469 146.070312 C 144.691406 146.554688 144.164062 146.441406 143.761719 146.179688 C 138.710938 143.1875 135.039062 138.429688 131.570312 133.796875 C 124.519531 124.054688 118.191406 113.800781 110.6875 104.386719 C 109.464844 102.769531 107.921875 101.394531 105.839844 101.113281 C 101.417969 100.359375 96.914062 100.476562 92.457031 100.8125 C 87.558594 101.226562 82.566406 101.570312 77.828125 102.945312 C 71.921875 104.765625 67.515625 110.488281 64.78125 115.792969 C 58.449219 132.011719 58.125 149.703125 57.574219 166.882812 C 57.402344 175.902344 56.6875 184.898438 56.546875 193.917969 C 56.546875 198.070312 56.894531 202.410156 58.203125 206.339844 Z M 58.203125 206.339844 " fill-opacity="1" fill-rule="nonzero"/></g></g></g></g><g fill="#ffffff" fill-opacity="1"><g transform="translate(149.6387, 286.884499)"><g><path d="M -2.027344 -2.171875 L -5.988281 -6.40625 L -28.355469 14.492188 L -24.398438 18.730469 Z M -2.027344 -2.171875 "/></g></g></g><g fill="#ffffff" fill-opacity="1"><g transform="translate(141.724358, 278.438779)"><g><path d="M -22.820312 8.308594 C -23.8125 6.839844 -25.882812 6.410156 -27.402344 7.4375 C -28.90625 8.457031 -29.277344 10.535156 -28.285156 12.003906 C -27.269531 13.507812 -25.199219 13.9375 -23.695312 12.921875 C -22.175781 11.894531 -21.804688 9.8125 -22.820312 8.308594 Z M -1.664062 -2.460938 L -4.902344 -7.246094 L -21.875 4.230469 L -18.636719 9.015625 Z M -1.664062 -2.460938 "/></g></g></g><g fill="#ffffff" fill-opacity="1"><g transform="translate(135.23626, 269.25636)"><g><path d="M -4.269531 -9.707031 L -5.792969 -13.171875 L -9.789062 -11.414062 L -9.042969 -9.71875 C -8.449219 -8.367188 -8.835938 -7.21875 -10.515625 -6.480469 L -18.816406 -2.828125 L -20.515625 -6.699219 L -24.546875 -4.925781 L -22.847656 -1.058594 L -28.902344 1.605469 L -26.816406 6.351562 L -24.335938 5.257812 C -21.527344 4.023438 -20.28125 4.78125 -19.40625 6.769531 L -18.882812 7.957031 L -14.851562 6.183594 L -16.472656 2.496094 L -7.605469 -1.402344 C -3.867188 -3.046875 -2.664062 -6.058594 -4.269531 -9.707031 Z M -4.269531 -9.707031 "/></g></g></g><g fill="#ffffff" fill-opacity="1"><g transform="translate(129.100631, 255.510219)"><g><path d="M -2.214844 -10.371094 L -3.003906 -14.074219 L -7.273438 -13.160156 L -6.886719 -11.347656 C -6.578125 -9.90625 -7.191406 -8.859375 -8.984375 -8.476562 L -17.851562 -6.582031 L -18.734375 -10.714844 L -23.042969 -9.792969 L -22.160156 -5.660156 L -28.628906 -4.28125 L -27.546875 0.789062 L -24.898438 0.222656 C -21.894531 -0.417969 -20.828125 0.574219 -20.375 2.699219 L -20.101562 3.96875 L -15.796875 3.046875 L -16.636719 -0.890625 L -7.164062 -2.914062 C -3.167969 -3.765625 -1.382812 -6.472656 -2.214844 -10.371094 Z M -2.214844 -10.371094 "/></g></g></g><g fill="#ffffff" fill-opacity="1"><g transform="translate(126.037972, 240.473952)"><g><path d="M -0.0898438 -2.96875 L -0.261719 -8.765625 L -30.863281 -7.847656 L -30.6875 -2.050781 Z M -0.0898438 -2.96875 "/></g></g></g><g fill="#ffffff" fill-opacity="1"><g transform="translate(124.928846, 229.771723)"><g><path d="M -6.039062 -23.863281 C -13.082031 -25.230469 -17.066406 -21.609375 -18.191406 -15.917969 C -19.414062 -9.71875 -16.402344 -4.597656 -9.792969 -3.292969 C -3.183594 -1.988281 1.488281 -5.476562 2.765625 -11.96875 C 3.65625 -16.484375 2.042969 -20.5625 -1.761719 -22.691406 L -3.542969 -17.679688 C -1.914062 -16.566406 -1.28125 -14.820312 -1.679688 -12.804688 C -2.207031 -10.125 -4.25 -8.210938 -7.640625 -8.636719 L -4.703125 -23.539062 Z M -14.195312 -15.171875 C -13.71875 -17.574219 -11.9375 -19.09375 -9.085938 -18.714844 L -10.925781 -9.386719 C -13.789062 -10.417969 -14.722656 -12.492188 -14.195312 -15.171875 Z M -14.195312 -15.171875 "/></g></g></g><g fill="#ffffff" fill-opacity="1"><g transform="translate(129.875608, 207.749754)"><g/></g></g><g fill="#ffffff" fill-opacity="1"><g transform="translate(132.743288, 198.617404)"><g><path d="M -7.648438 -24.554688 C -9.28125 -22.390625 -9.890625 -19.859375 -9.132812 -17.789062 L -19.207031 -25.378906 L -22.660156 -20.796875 L 1.789062 -2.371094 L 5.0625 -6.71875 L 3.011719 -8.4375 C 5.316406 -8.148438 7.710938 -9.4375 9.414062 -11.699219 C 12.652344 -15.996094 12.15625 -21.960938 6.808594 -25.988281 C 1.460938 -30.019531 -4.410156 -28.855469 -7.648438 -24.554688 Z M 4.804688 -13.496094 C 2.972656 -11.0625 -0.320312 -10.570312 -3.183594 -12.730469 C -6.046875 -14.890625 -6.488281 -18.214844 -4.664062 -20.636719 C -2.828125 -23.070312 0.410156 -23.625 3.355469 -21.40625 C 6.28125 -19.199219 6.640625 -15.933594 4.804688 -13.496094 Z M 4.804688 -13.496094 "/></g></g></g><g fill="#ffffff" fill-opacity="1"><g transform="translate(146.946153, 179.304)"><g><path d="M 1.855469 -26.269531 L 8.316406 -16.996094 C 10.453125 -13.894531 9.371094 -11.683594 7.425781 -10.328125 C 5.792969 -9.1875 3.832031 -9.035156 2.28125 -11.261719 L -4.898438 -21.5625 L -9.621094 -18.265625 L -1.738281 -6.953125 C 0.851562 -3.242188 4.542969 -2.683594 8.582031 -5.496094 C 10.886719 -7.105469 12.148438 -9.269531 12.289062 -11.578125 L 13.816406 -9.628906 L 18.28125 -12.742188 L 6.5625 -29.550781 Z M 1.855469 -26.269531 "/></g></g></g><g fill="#ffffff" fill-opacity="1"><g transform="translate(165.692213, 165.821207)"><g><path d="M 8.277344 -24.386719 C 5.6875 -23.59375 3.859375 -22.011719 2.984375 -19.96875 L 2.316406 -22.140625 L -3.171875 -20.457031 L 2.839844 -0.871094 L 8.328125 -2.554688 L 5.011719 -13.359375 C 3.941406 -16.988281 5.648438 -18.765625 7.914062 -19.460938 C 9.800781 -20.039062 11.710938 -19.582031 12.511719 -16.972656 L 16.195312 -4.96875 L 21.703125 -6.65625 L 17.65625 -19.84375 C 16.324219 -24.1875 12.984375 -25.832031 8.277344 -24.386719 Z M 8.277344 -24.386719 "/></g></g></g><g fill="#ffffff" fill-opacity="1"><g transform="translate(187.70101, 158.712001)"><g><path d="M 15.351562 -20.679688 C 12.640625 -20.71875 10.414062 -19.769531 8.957031 -18.097656 L 8.988281 -20.367188 L 3.25 -20.445312 L 2.96875 0.0390625 L 8.707031 0.117188 L 8.863281 -11.179688 C 8.953125 -14.96875 11.121094 -16.132812 13.496094 -16.101562 C 15.46875 -16.074219 17.148438 -15.054688 17.109375 -12.324219 L 16.9375 0.230469 L 22.699219 0.308594 L 22.886719 -13.480469 C 22.949219 -18.023438 20.273438 -20.613281 15.351562 -20.679688 Z M 15.351562 -20.679688 "/></g></g></g><g fill="#ffffff" fill-opacity="1"><g transform="translate(211.683054, 159.683734)"><g><path d="M 11.492188 -21.394531 C 13.214844 -20.957031 15.042969 -22.015625 15.492188 -23.796875 C 15.9375 -25.554688 14.828125 -27.355469 13.109375 -27.789062 C 11.351562 -28.234375 9.523438 -27.175781 9.078125 -25.417969 C 8.628906 -23.640625 9.734375 -21.839844 11.492188 -21.394531 Z M 2.878906 0.726562 L 8.484375 2.144531 L 13.503906 -17.71875 L 7.902344 -19.136719 Z M 2.878906 0.726562 "/></g></g></g><g fill="#ffffff" fill-opacity="1"><g transform="translate(222.259521, 161.545055)"><g><path d="M 24.605469 0.726562 C 27.851562 -5.671875 25.457031 -10.496094 20.292969 -13.132812 C 14.664062 -16.007812 8.914062 -14.515625 5.847656 -8.515625 C 2.785156 -2.515625 4.859375 2.929688 10.753906 5.9375 C 14.851562 8.03125 19.214844 7.597656 22.308594 4.523438 L 17.976562 1.4375 C 16.457031 2.699219 14.601562 2.824219 12.773438 1.890625 C 10.34375 0.648438 9.0625 -1.839844 10.398438 -4.984375 L 23.925781 1.925781 Z M 18.480469 -9.496094 C 20.660156 -8.378906 21.632812 -6.25 20.488281 -3.613281 L 12.019531 -7.9375 C 13.796875 -10.410156 16.046875 -10.738281 18.480469 -9.496094 Z M 18.480469 -9.496094 "/></g></g></g><g fill="#ffffff" fill-opacity="1"><g transform="translate(241.771154, 171.519594)"><g><path d="M 7.21875 7.195312 C 10.472656 10.191406 14.570312 11.660156 17.753906 8.199219 C 20.726562 4.976562 19.109375 1.613281 17.359375 -1.164062 C 15.9375 -3.417969 14.410156 -5.257812 15.503906 -6.445312 C 16.371094 -7.386719 17.6875 -6.902344 18.800781 -5.875 C 20.03125 -4.742188 20.570312 -3.324219 19.726562 -1.5 L 23.996094 1.074219 C 26.054688 -2.335938 24.308594 -6.003906 21.378906 -8.703125 C 18.035156 -11.785156 14.160156 -12.726562 11.3125 -9.632812 C 8.976562 -7.097656 9.8125 -4.535156 11.035156 -2.242188 C 12.644531 0.808594 14.894531 3.128906 13.464844 4.710938 C 12.402344 5.921875 10.976562 5.207031 9.933594 4.246094 C 8.511719 2.9375 7.949219 1.253906 8.980469 -0.777344 L 4.53125 -3.035156 C 2.4375 0.324219 3.835938 4.074219 7.21875 7.195312 Z M 7.21875 7.195312 "/></g></g></g><g fill="#ffffff" fill-opacity="1"><g transform="translate(255.706875, 184.893117)"><g/></g></g><g fill="#ffffff" fill-opacity="1"><g transform="translate(262.050997, 192.265232)"><g><path d="M 4.546875 11.367188 C 6.578125 16.027344 10.65625 18.597656 15.496094 17.574219 L 13.90625 12.480469 C 11.421875 12.871094 9.652344 11.707031 8.6875 9.496094 C 7.453125 6.664062 8.863281 3.765625 12.207031 2.308594 C 15.566406 0.839844 18.632812 1.785156 19.867188 4.617188 C 20.832031 6.828125 20.5 8.910156 18.507812 10.472656 L 21.15625 15.101562 C 25.199219 12.25 26.109375 7.613281 24.039062 2.863281 C 21.464844 -3.035156 15.753906 -5.503906 9.910156 -2.953125 C 4.082031 -0.410156 1.972656 5.46875 4.546875 11.367188 Z M 4.546875 11.367188 "/></g></g></g><g fill="#ffffff" fill-opacity="1"><g transform="translate(270.474378, 212.897726)"><g><path d="M 24.246094 1.390625 C 24.578125 3.132812 26.308594 4.347656 28.109375 4.003906 C 29.890625 3.664062 31.058594 1.902344 30.726562 0.15625 C 30.386719 -1.625 28.65625 -2.835938 26.875 -2.496094 C 25.070312 -2.152344 23.90625 -0.390625 24.246094 1.390625 Z M 0.554688 2.917969 L 1.636719 8.59375 L 21.761719 4.765625 L 20.683594 -0.914062 Z M 0.554688 2.917969 "/></g></g></g><g fill="#ffffff" fill-opacity="1"><g transform="translate(272.788403, 223.923452)"><g><path d="M 17.539062 8.421875 L 20.566406 8.214844 L 20.515625 2.773438 L 0.0273438 2.96875 L 0.0820312 8.75 L 10.070312 8.652344 C 14.414062 8.613281 15.707031 10.671875 15.75 15.015625 L 20.871094 14.96875 C 20.84375 12.117188 19.285156 9.523438 17.539062 8.421875 Z M 17.539062 8.421875 "/></g></g></g><g fill="#ffffff" fill-opacity="1"><g transform="translate(273.57098, 238.169788)"><g><path d="M -3.222656 11.8125 C -4.410156 16.753906 -2.703125 21.261719 1.773438 23.359375 L 3.570312 18.339844 C 1.355469 17.152344 0.644531 15.160156 1.207031 12.8125 C 1.929688 9.808594 4.800781 8.347656 8.347656 9.199219 C 11.914062 10.054688 13.789062 12.65625 13.070312 15.660156 C 12.507812 18.003906 10.988281 19.464844 8.453125 19.511719 L 7.78125 24.804688 C 12.722656 24.964844 16.246094 21.8125 17.453125 16.773438 C 18.957031 10.515625 15.890625 5.105469 9.6875 3.617188 C 3.503906 2.132812 -1.722656 5.550781 -3.222656 11.8125 Z M -3.222656 11.8125 "/></g></g></g><g fill="#ffffff" fill-opacity="1"><g transform="translate(267.865673, 259.704947)"><g><path d="M -1.316406 2.664062 L -3.886719 7.863281 L 23.558594 21.425781 L 26.128906 16.226562 Z M -1.316406 2.664062 "/></g></g></g><g fill="#ffffff" fill-opacity="1"><g transform="translate(263.81427, 269.673213)"><g><path d="M -5.875 23.902344 C -0.300781 28.417969 4.917969 27.09375 8.582031 22.597656 C 12.574219 17.699219 12.320312 11.761719 7.097656 7.507812 C 1.875 3.25 -3.882812 4.136719 -8.0625 9.265625 C -10.972656 12.835938 -11.460938 17.191406 -9.105469 20.859375 L -5.179688 17.273438 C -6.09375 15.523438 -5.828125 13.683594 -4.53125 12.09375 C -2.804688 9.976562 -0.105469 9.246094 2.6875 11.214844 L -6.902344 22.988281 Z M 5.40625 20.058594 C 3.855469 21.960938 1.570312 22.464844 -0.769531 20.789062 L 5.238281 13.417969 C 7.28125 15.675781 7.128906 17.945312 5.40625 20.058594 Z M 5.40625 20.058594 "/></g></g></g><g clip-path="url(#0381514a11)"><path fill="#ffffff" d="M 88.421875 262.386719 C 86.171875 262.726562 83.933594 263.183594 81.722656 263.75 C 79.519531 264.324219 77.28125 264.890625 75.203125 265.851562 C 73.125 266.804688 71.117188 267.917969 69.316406 269.351562 L 69.390625 269.484375 C 71.582031 268.804688 73.675781 268.011719 75.785156 267.269531 C 77.898438 266.535156 79.9375 265.617188 82.070312 264.921875 C 84.199219 264.222656 86.367188 263.625 88.5625 263.140625 C 90.753906 262.628906 92.976562 262.226562 95.21875 261.9375 L 95.207031 261.785156 C 92.941406 261.871094 90.675781 262.074219 88.421875 262.386719 Z M 77.140625 254.136719 C 79.449219 253.574219 81.828125 253.246094 84.21875 253.167969 C 86.613281 253.0625 89.023438 253.207031 91.40625 253.617188 L 91.4375 253.46875 C 89.089844 252.855469 86.664062 252.503906 84.21875 252.402344 C 81.773438 252.328125 79.3125 252.511719 76.886719 252.9375 C 74.46875 253.375 72.03125 253.941406 69.804688 255.039062 C 67.585938 256.117188 65.5 257.492188 63.785156 259.253906 L 63.878906 259.378906 C 66.078125 258.308594 68.214844 257.289062 70.425781 256.4375 C 72.628906 255.597656 74.820312 254.691406 77.140625 254.136719 Z M 74.261719 244.855469 C 76.625 244.421875 79.035156 244.210938 81.449219 244.230469 C 83.867188 244.226562 86.296875 244.453125 88.6875 244.925781 L 88.722656 244.777344 C 86.371094 244.105469 83.941406 243.667969 81.484375 243.46875 C 79.023438 243.292969 76.539062 243.351562 74.074219 243.644531 C 71.621094 243.941406 69.136719 244.351562 66.820312 245.289062 C 64.507812 246.207031 62.304688 247.414062 60.417969 249.019531 L 60.496094 249.152344 C 62.804688 248.277344 65.042969 247.425781 67.335938 246.730469 C 69.621094 246.046875 71.890625 245.277344 74.261719 244.855469 Z M 323.050781 264.265625 C 321.320312 263.199219 319.351562 262.609375 317.410156 262.113281 C 315.457031 261.625 313.460938 261.34375 311.460938 261.28125 C 309.464844 261.246094 307.46875 261.40625 305.539062 261.828125 L 305.5625 261.980469 C 307.519531 261.800781 309.480469 261.808594 311.410156 262.046875 C 313.339844 262.257812 315.238281 262.675781 317.0625 263.285156 C 318.894531 263.890625 320.585938 264.796875 322.3125 265.609375 C 324.042969 266.429688 325.707031 267.378906 327.453125 268.351562 L 327.558594 268.238281 C 326.359375 266.617188 324.773438 265.316406 323.050781 264.265625 Z M 320.777344 251.796875 C 318.328125 251.574219 315.863281 251.585938 313.429688 251.824219 C 311 252.09375 308.601562 252.589844 306.285156 253.316406 L 306.324219 253.464844 C 308.683594 252.9375 311.085938 252.648438 313.480469 252.589844 C 315.878906 252.503906 318.273438 252.652344 320.628906 253.011719 C 322.988281 253.367188 325.265625 254.0625 327.550781 254.675781 C 329.84375 255.300781 332.085938 256.078125 334.402344 256.871094 L 334.476562 256.738281 C 332.558594 255.199219 330.335938 254.066406 328.019531 253.21875 C 325.695312 252.359375 323.21875 252.027344 320.777344 251.796875 Z M 337.980469 247.773438 L 337.929688 247.917969 C 335.367188 247.480469 332.875 246.996094 330.363281 246.628906 C 327.859375 246.269531 325.367188 245.78125 322.828125 245.605469 C 320.292969 245.414062 317.738281 245.40625 315.191406 245.582031 C 312.640625 245.730469 310.09375 246.066406 307.578125 246.585938 L 307.539062 246.4375 C 310.011719 245.71875 312.546875 245.175781 315.113281 244.820312 C 317.683594 244.492188 320.28125 244.34375 322.882812 244.378906 C 325.480469 244.429688 328.109375 244.527344 330.652344 245.125 C 333.195312 245.707031 335.683594 246.535156 337.980469 247.773438 " fill-opacity="1" fill-rule="nonzero"/></g><g clip-path="url(#dd7dc97106)"><path fill="#f87d98" d="M 209.714844 251.628906 C 208.855469 252.871094 208.042969 254.109375 207.128906 255.261719 C 206.1875 256.453125 205.175781 257.582031 204.144531 258.695312 C 203.59375 259.285156 202.945312 259.808594 202.101562 259.914062 C 201.710938 259.964844 201.28125 259.980469 200.90625 259.871094 C 199.042969 259.335938 197.324219 258.484375 195.871094 257.179688 C 194.546875 255.992188 193.230469 254.785156 191.988281 253.507812 C 191.15625 252.648438 190.402344 251.695312 189.710938 250.714844 C 188.347656 248.796875 187 246.863281 185.753906 244.867188 C 184.847656 243.414062 184.0625 241.890625 183.402344 240.292969 C 182.886719 239.046875 182.53125 237.761719 182.300781 236.460938 C 182 234.773438 182.109375 233.070312 182.902344 231.492188 C 183.691406 229.921875 184.976562 228.945312 186.636719 228.460938 C 188.148438 228.015625 189.644531 228.109375 191.117188 228.644531 C 192.402344 229.113281 193.519531 229.839844 194.503906 230.789062 C 196.113281 232.335938 197.320312 234.167969 198.3125 236.152344 C 198.480469 236.488281 198.570312 236.859375 198.707031 237.210938 C 198.730469 237.277344 198.789062 237.328125 198.832031 237.390625 C 198.863281 237.328125 198.898438 237.265625 198.917969 237.199219 C 199.386719 235.667969 199.992188 234.195312 200.761719 232.789062 C 201.390625 231.636719 202.132812 230.574219 203.007812 229.59375 C 203.980469 228.503906 205.136719 227.683594 206.449219 227.078125 C 207.210938 226.726562 208.015625 226.535156 208.855469 226.414062 C 209.613281 226.308594 210.339844 226.378906 211.050781 226.535156 C 211.828125 226.710938 212.554688 227.0625 213.164062 227.597656 C 214.527344 228.789062 215.21875 230.339844 215.480469 232.105469 C 215.566406 232.679688 215.675781 233.269531 215.636719 233.84375 C 215.554688 235.023438 215.4375 236.210938 215.21875 237.375 C 214.917969 238.960938 214.574219 240.546875 214.125 242.097656 C 213.789062 243.265625 213.292969 244.390625 212.808594 245.507812 C 212.285156 246.722656 211.722656 247.921875 211.125 249.101562 C 210.699219 249.949219 210.1875 250.757812 209.714844 251.628906 M 207.078125 249.4375 C 207.402344 248.886719 207.730469 248.335938 208.054688 247.78125 C 208.300781 247.351562 208.613281 246.945312 208.777344 246.484375 C 209.105469 245.578125 209.363281 244.648438 209.625 243.722656 C 209.839844 242.980469 210.03125 242.230469 210.210938 241.480469 C 210.421875 240.613281 210.613281 239.738281 210.800781 238.863281 C 210.921875 238.292969 211.027344 237.722656 211.132812 237.148438 C 211.140625 237.09375 211.101562 237.027344 211.082031 236.96875 C 211.015625 237.011719 210.910156 237.039062 210.890625 237.097656 C 210.628906 237.941406 210.355469 238.785156 210.136719 239.644531 C 209.839844 240.832031 209.628906 242.039062 209.3125 243.21875 C 208.734375 245.351562 207.726562 247.300781 206.75 249.265625 C 206.402344 249.960938 206.074219 250.667969 205.746094 251.375 C 205.714844 251.445312 205.742188 251.542969 205.742188 251.628906 C 205.789062 251.582031 205.847656 251.539062 205.882812 251.484375 C 206.269531 250.816406 206.652344 250.148438 207.078125 249.4375 M 190.34375 244.550781 C 189.914062 243.582031 189.425781 242.632812 189.0625 241.636719 C 188.636719 240.480469 188.324219 239.28125 187.960938 238.101562 C 187.792969 237.554688 187.632812 237.003906 187.453125 236.460938 C 187.421875 236.371094 187.300781 236.3125 187.21875 236.238281 C 187.1875 236.335938 187.125 236.4375 187.128906 236.535156 C 187.144531 236.875 187.1875 237.210938 187.207031 237.550781 C 187.265625 238.550781 187.496094 239.515625 187.800781 240.460938 C 188.070312 241.28125 188.253906 242.140625 188.761719 242.878906 C 189.625 244.140625 190.457031 245.421875 191.3125 246.691406 C 191.363281 246.769531 191.480469 246.804688 191.570312 246.859375 C 191.546875 246.761719 191.550781 246.648438 191.503906 246.566406 C 191.136719 245.90625 190.761719 245.25 190.34375 244.550781 M 195.785156 254.832031 C 194.835938 253.851562 193.886719 252.875 192.949219 251.886719 C 192.535156 251.449219 192.152344 250.988281 191.765625 250.527344 C 190.992188 249.617188 190.230469 248.699219 189.457031 247.789062 C 189.382812 247.703125 189.265625 247.65625 189.167969 247.589844 C 189.203125 247.707031 189.210938 247.84375 189.277344 247.933594 C 189.710938 248.527344 190.140625 249.128906 190.605469 249.695312 C 191.578125 250.867188 192.550781 252.039062 193.566406 253.171875 C 194.3125 254.003906 195.132812 254.769531 195.925781 255.558594 C 196.058594 255.691406 196.210938 255.804688 196.363281 255.914062 C 196.417969 255.953125 196.496094 255.960938 196.5625 255.984375 C 196.554688 255.90625 196.570312 255.8125 196.53125 255.757812 C 196.300781 255.457031 196.0625 255.167969 195.785156 254.832031 M 187.039062 232.882812 C 187.089844 232.863281 187.144531 232.851562 187.183594 232.820312 C 187.902344 232.21875 188.71875 232.027344 189.648438 232.160156 C 190.878906 232.332031 191.894531 232.929688 192.808594 233.726562 C 193.824219 234.605469 194.597656 235.699219 195.40625 236.765625 C 195.441406 236.808594 195.484375 236.84375 195.523438 236.882812 C 195.539062 236.820312 195.589844 236.746094 195.570312 236.703125 C 195.46875 236.492188 195.355469 236.285156 195.238281 236.082031 C 194.492188 234.808594 193.480469 233.757812 192.425781 232.75 C 192.246094 232.582031 192.027344 232.433594 191.800781 232.339844 C 190.582031 231.839844 189.320312 231.589844 188.03125 232.011719 C 187.546875 232.171875 187.113281 232.492188 186.671875 232.765625 C 186.601562 232.808594 186.613281 232.984375 186.589844 233.101562 C 186.695312 233.070312 186.804688 233.046875 186.910156 233.011719 C 186.945312 232.996094 186.96875 232.953125 187.039062 232.882812 M 197.707031 243.707031 C 197.21875 242.636719 196.734375 241.5625 196.238281 240.488281 C 196.214844 240.4375 196.136719 240.410156 196.082031 240.375 C 196.082031 240.449219 196.058594 240.527344 196.078125 240.59375 C 196.210938 241.003906 196.328125 241.417969 196.5 241.808594 C 196.996094 242.929688 197.269531 244.113281 197.496094 245.308594 C 197.59375 245.820312 197.660156 246.335938 197.753906 246.84375 C 197.773438 246.929688 197.867188 247 197.925781 247.078125 C 197.980469 246.996094 198.050781 246.917969 198.082031 246.824219 C 198.148438 246.628906 198.164062 246.410156 198.257812 246.226562 C 198.453125 245.839844 198.417969 245.480469 198.257812 245.097656 C 198.070312 244.65625 197.917969 244.199219 197.707031 243.707031 M 193.609375 242.867188 C 193.816406 243.3125 194.023438 243.757812 194.238281 244.199219 C 194.273438 244.273438 194.359375 244.320312 194.421875 244.382812 C 194.441406 244.296875 194.496094 244.207031 194.480469 244.128906 C 194.382812 243.695312 194.332031 243.238281 194.148438 242.839844 C 193.894531 242.285156 193.59375 241.738281 193.222656 241.253906 C 192.242188 239.984375 191.21875 238.75 190.207031 237.507812 C 190.136719 237.421875 190.015625 237.375 189.921875 237.3125 C 189.957031 237.425781 189.964844 237.5625 190.03125 237.65625 C 190.574219 238.382812 191.160156 239.082031 191.671875 239.832031 C 192.332031 240.808594 192.9375 241.824219 193.609375 242.867188 M 205.113281 239.453125 C 205.054688 240.199219 204.996094 240.949219 204.949219 241.695312 C 204.945312 241.792969 205.007812 241.894531 205.039062 241.992188 C 205.117188 241.921875 205.234375 241.863281 205.273438 241.773438 C 205.335938 241.617188 205.34375 241.441406 205.394531 241.277344 C 205.871094 239.753906 206.355469 238.230469 206.828125 236.707031 C 206.859375 236.609375 206.820312 236.488281 206.8125 236.378906 C 206.726562 236.441406 206.605469 236.484375 206.5625 236.570312 C 206.070312 237.5 205.59375 238.433594 205.113281 239.453125 M 205.699219 231.53125 C 206.664062 230.472656 207.761719 229.671875 209.265625 229.625 C 209.335938 229.625 209.460938 229.457031 209.449219 229.382812 C 209.410156 229.105469 209.304688 228.8125 208.957031 228.886719 C 208.527344 228.980469 208.085938 229.085938 207.699219 229.28125 C 206.832031 229.726562 206.140625 230.398438 205.558594 231.175781 C 205.300781 231.519531 205.089844 231.902344 204.863281 232.273438 C 204.835938 232.320312 204.859375 232.394531 204.855469 232.457031 C 204.90625 232.4375 204.972656 232.433594 205.003906 232.398438 C 205.222656 232.125 205.4375 231.851562 205.699219 231.53125 M 193.0625 237.769531 C 192.640625 237.316406 192.25 236.828125 191.789062 236.417969 C 191.417969 236.089844 190.976562 235.839844 190.546875 235.585938 C 190.445312 235.527344 190.273438 235.582031 190.136719 235.582031 C 190.214844 235.6875 190.28125 235.804688 190.371094 235.898438 C 191.070312 236.625 191.796875 237.332031 192.472656 238.082031 C 192.878906 238.535156 193.207031 239.0625 193.582031 239.546875 C 193.636719 239.617188 193.734375 239.65625 193.8125 239.710938 C 193.816406 239.621094 193.824219 239.53125 193.816406 239.445312 C 193.757812 238.820312 193.460938 238.304688 193.0625 237.769531 M 202.394531 247.667969 C 202.6875 247.035156 203.023438 246.417969 203.261719 245.761719 C 203.421875 245.320312 203.453125 244.828125 203.519531 244.355469 C 203.589844 243.863281 203.640625 243.367188 203.683594 242.871094 C 203.691406 242.792969 203.613281 242.707031 203.574219 242.625 C 203.527344 242.695312 203.46875 242.761719 203.441406 242.839844 C 203.34375 243.152344 203.25 243.464844 203.164062 243.777344 C 202.738281 245.269531 202.320312 246.761719 201.898438 248.253906 C 201.882812 248.308594 201.890625 248.367188 201.890625 248.425781 C 201.960938 248.40625 202.070312 248.402344 202.09375 248.359375 C 202.191406 248.148438 202.265625 247.929688 202.394531 247.667969 M 202.015625 233.808594 C 202.550781 233.761719 202.828125 233.421875 203.023438 232.960938 C 203.527344 231.761719 204.214844 230.6875 205.117188 229.75 C 205.25 229.609375 205.316406 229.402344 205.417969 229.226562 C 205.253906 229.328125 205.058594 229.402344 204.929688 229.535156 C 204.335938 230.167969 203.722656 230.78125 203.191406 231.464844 C 202.667969 232.140625 202.234375 232.882812 201.769531 233.605469 C 201.714844 233.683594 201.714844 233.800781 201.6875 233.898438 C 201.785156 233.882812 201.878906 233.867188 202.015625 233.808594 M 212.894531 232.710938 C 212.871094 232.640625 212.847656 232.574219 212.828125 232.503906 C 212.792969 232.558594 212.734375 232.617188 212.730469 232.675781 C 212.695312 233.253906 212.695312 233.832031 212.636719 234.40625 C 212.511719 235.652344 212.386719 236.902344 212.214844 238.140625 C 212.082031 239.097656 211.871094 240.042969 211.699219 240.992188 C 211.683594 241.082031 211.699219 241.175781 211.703125 241.265625 C 211.765625 241.191406 211.863281 241.125 211.882812 241.042969 C 212.140625 240 212.421875 238.960938 212.632812 237.90625 C 212.769531 237.210938 212.796875 236.492188 212.894531 235.785156 C 213.035156 234.777344 213.035156 233.765625 212.894531 232.710938 M 210.882812 245.941406 C 210.5 246.609375 210.074219 247.257812 209.742188 247.949219 C 209.398438 248.671875 209.140625 249.4375 208.851562 250.183594 C 208.820312 250.261719 208.835938 250.355469 208.828125 250.441406 C 208.886719 250.390625 208.960938 250.347656 208.996094 250.28125 C 209.460938 249.382812 209.929688 248.484375 210.378906 247.578125 C 210.789062 246.75 211.175781 245.914062 211.566406 245.082031 C 211.59375 245.027344 211.578125 244.953125 211.585938 244.886719 C 211.539062 244.9375 211.484375 244.984375 211.445312 245.039062 C 211.257812 245.3125 211.070312 245.585938 210.882812 245.941406 M 202.433594 241.054688 C 202.265625 241.585938 202.09375 242.117188 201.9375 242.652344 C 201.914062 242.738281 201.972656 242.851562 201.996094 242.949219 C 202.058594 242.878906 202.144531 242.8125 202.179688 242.730469 C 202.425781 242.101562 202.648438 241.46875 202.898438 240.84375 C 203.203125 240.074219 203.53125 239.316406 203.828125 238.542969 C 203.867188 238.445312 203.785156 238.300781 203.757812 238.175781 C 203.679688 238.25 203.585938 238.3125 203.523438 238.402344 C 202.976562 239.175781 202.773438 240.101562 202.433594 241.054688 M 192.855469 244.972656 C 193.050781 245.253906 193.246094 245.539062 193.449219 245.816406 C 193.480469 245.859375 193.558594 245.867188 193.617188 245.890625 C 193.609375 245.832031 193.617188 245.769531 193.59375 245.71875 C 193.476562 245.472656 193.359375 245.226562 193.230469 244.988281 C 192.65625 243.9375 192.085938 242.886719 191.5 241.84375 C 191.394531 241.660156 191.230469 241.515625 191.097656 241.351562 C 191.148438 241.570312 191.160156 241.8125 191.257812 242.007812 C 191.765625 242.988281 192.292969 243.957031 192.855469 244.972656 M 185.785156 236.757812 C 185.8125 236.140625 185.851562 235.519531 185.859375 234.902344 C 185.859375 234.804688 185.738281 234.707031 185.671875 234.609375 C 185.597656 234.683594 185.484375 234.75 185.457031 234.839844 C 185.265625 235.480469 185.199219 236.140625 185.292969 236.796875 C 185.347656 237.152344 185.5 237.492188 185.625 237.832031 C 185.644531 237.894531 185.738281 237.929688 185.800781 237.980469 C 185.824219 237.910156 185.871094 237.839844 185.863281 237.773438 C 185.847656 237.460938 185.8125 237.152344 185.785156 236.757812 M 208.332031 235.28125 C 208.179688 235.972656 208.023438 236.660156 207.867188 237.351562 C 207.851562 237.417969 207.839844 237.488281 207.828125 237.554688 C 207.898438 237.503906 208.007812 237.472656 208.035156 237.402344 C 208.152344 237.117188 208.253906 236.824219 208.347656 236.527344 C 208.476562 236.121094 208.621094 235.714844 208.695312 235.292969 C 208.730469 235.109375 208.617188 234.894531 208.570312 234.691406 C 208.234375 234.777344 208.429688 235.054688 208.332031 235.28125 M 206.410156 234.863281 C 206.429688 234.8125 206.453125 234.765625 206.464844 234.71875 C 206.484375 234.632812 206.496094 234.546875 206.511719 234.460938 C 206.453125 234.507812 206.386719 234.546875 206.335938 234.601562 C 206.085938 234.875 205.824219 235.136719 205.601562 235.429688 C 205.351562 235.753906 205.132812 236.101562 204.925781 236.453125 C 204.882812 236.527344 204.941406 236.660156 204.953125 236.765625 C 205.035156 236.710938 205.140625 236.675781 205.191406 236.601562 C 205.589844 236.039062 205.976562 235.46875 206.410156 234.863281 M 212.140625 230.269531 C 211.808594 229.933594 211.480469 229.589844 211.136719 229.269531 C 211.058594 229.199219 210.914062 229.207031 210.800781 229.175781 C 210.785156 229.300781 210.746094 229.425781 210.757812 229.546875 C 210.765625 229.644531 210.800781 229.78125 210.871094 229.824219 C 211.253906 230.066406 211.652344 230.285156 212.046875 230.503906 C 212.050781 230.503906 212.105469 230.40625 212.140625 230.269531 M 202.308594 254.324219 C 202.257812 254.265625 202.207031 254.203125 202.15625 254.140625 C 201.886719 254.390625 201.574219 254.605469 201.367188 254.902344 C 201.273438 255.03125 201.359375 255.324219 201.425781 255.527344 C 201.46875 255.667969 201.59375 255.703125 201.683594 255.507812 C 201.867188 255.125 202.070312 254.746094 202.308594 254.324219 M 196.367188 252.976562 C 196.140625 252.949219 196.078125 253.0625 196.210938 253.230469 C 196.492188 253.59375 196.792969 253.945312 197.09375 254.292969 C 197.140625 254.347656 197.226562 254.367188 197.292969 254.40625 C 197.304688 254.328125 197.332031 254.246094 197.328125 254.167969 C 197.292969 253.566406 196.910156 253.246094 196.367188 252.976562 M 185.117188 230.773438 C 184.589844 231.054688 184.394531 231.59375 184.117188 232.070312 C 184.09375 232.113281 184.160156 232.214844 184.195312 232.28125 C 184.199219 232.292969 184.289062 232.285156 184.304688 232.261719 C 184.589844 231.78125 184.875 231.300781 185.117188 230.773438 M 192.855469 231.40625 C 192.980469 231.449219 193.101562 231.492188 193.226562 231.539062 C 193.152344 231.429688 193.097656 231.289062 192.996094 231.222656 C 192.46875 230.867188 191.929688 230.527344 191.390625 230.1875 C 191.347656 230.164062 191.28125 230.1875 191.222656 230.191406 C 191.261719 230.230469 191.292969 230.277344 191.335938 230.308594 C 191.828125 230.664062 192.320312 231.011719 192.855469 231.40625 M 189.757812 234.1875 C 189.984375 234.214844 190.210938 234.253906 190.433594 234.265625 C 190.519531 234.269531 190.605469 234.210938 190.6875 234.175781 C 190.691406 234.171875 190.679688 234.113281 190.664062 234.089844 C 190.542969 233.914062 189.757812 233.722656 189.585938 233.859375 C 189.4375 233.976562 189.210938 234.246094 189.25 234.308594 C 189.410156 234.578125 189.546875 234.226562 189.757812 234.1875 M 210.632812 233.976562 C 210.632812 233.878906 210.644531 233.777344 210.628906 233.683594 C 210.625 233.648438 210.5625 233.605469 210.527344 233.601562 C 210.480469 233.597656 210.394531 233.621094 210.386719 233.648438 C 210.269531 234.160156 210.15625 234.675781 210.054688 235.191406 C 210.042969 235.242188 210.113281 235.308594 210.148438 235.367188 C 210.199219 235.3125 210.277344 235.265625 210.292969 235.199219 C 210.402344 234.808594 210.496094 234.414062 210.632812 233.976562 M 187.710938 230.773438 C 187.765625 230.730469 187.820312 230.6875 187.878906 230.644531 C 187.851562 230.617188 187.820312 230.5625 187.808594 230.566406 C 187.460938 230.695312 187.113281 230.828125 186.769531 230.972656 C 186.734375 230.984375 186.726562 231.0625 186.707031 231.109375 C 186.761719 231.109375 186.824219 231.125 186.875 231.109375 C 187.140625 231.015625 187.402344 230.914062 187.710938 230.773438 M 209.421875 231.828125 C 209.351562 231.898438 209.246094 231.957031 209.222656 232.039062 C 209.1875 232.160156 209.199219 232.296875 209.21875 232.425781 C 209.226562 232.484375 209.292969 232.53125 209.335938 232.585938 C 209.40625 232.476562 209.515625 232.371094 209.535156 232.253906 C 209.554688 232.132812 209.492188 232 209.421875 231.828125 M 198.835938 257.652344 C 198.972656 257.722656 199.109375 257.800781 199.25 257.859375 C 199.292969 257.878906 199.359375 257.855469 199.402344 257.835938 C 199.417969 257.828125 199.425781 257.742188 199.410156 257.730469 C 199.242188 257.601562 199.074219 257.472656 198.894531 257.367188 C 198.855469 257.34375 198.761719 257.429688 198.691406 257.464844 C 198.726562 257.511719 198.761719 257.5625 198.835938 257.652344 M 196.746094 251.585938 C 196.691406 251.851562 196.878906 251.808594 197.019531 251.792969 C 197.097656 251.78125 197.164062 251.707031 197.238281 251.664062 C 197.128906 251.625 197.023438 251.582031 196.910156 251.546875 C 196.875 251.535156 196.828125 251.542969 196.746094 251.585938 M 183.988281 237.304688 C 183.945312 237.363281 183.902344 237.425781 183.859375 237.484375 C 183.898438 237.507812 183.9375 237.535156 183.972656 237.558594 C 183.992188 237.488281 184.011719 237.417969 183.988281 237.304688 M 201.808594 257.695312 C 201.835938 257.640625 201.863281 257.582031 201.890625 257.527344 C 201.851562 257.507812 201.816406 257.492188 201.777344 257.472656 C 201.757812 257.546875 201.742188 257.621094 201.808594 257.695312 Z M 201.808594 257.695312 " fill-opacity="1" fill-rule="nonzero"/></g></svg>