<svg xmlns="http://www.w3.org/2000/svg" xmlns:xlink="http://www.w3.org/1999/xlink" width="1000" zoomAndPan="magnify" viewBox="0 0 750 749.999995" height="1000" preserveAspectRatio="xMidYMid meet" version="1.0"><defs><g/><clipPath id="d247ffb00f"><path d="M 739.535156 300 L 750 300 L 750 380 L 739.535156 380 Z M 739.535156 300 " clip-rule="nonzero"/></clipPath><clipPath id="08973b609b"><path d="M 255 74 L 462 74 L 462 283 L 255 283 Z M 255 74 " clip-rule="nonzero"/></clipPath><clipPath id="f5b8a81eb4"><path d="M 28.449219 163.214844 L 418.320312 42.332031 L 503.542969 317.1875 L 113.675781 438.070312 Z M 28.449219 163.214844 " clip-rule="nonzero"/></clipPath><clipPath id="e3b88d37e4"><path d="M 28.449219 163.214844 L 418.320312 42.332031 L 503.542969 317.1875 L 113.675781 438.070312 Z M 28.449219 163.214844 " clip-rule="nonzero"/></clipPath><clipPath id="111eef03a6"><path d="M 28.449219 163.214844 L 418.320312 42.332031 L 503.542969 317.1875 L 113.675781 438.070312 Z M 28.449219 163.214844 " clip-rule="nonzero"/></clipPath><clipPath id="53a6e8c5e6"><path d="M 107 196 L 291 196 L 291 429 L 107 429 Z M 107 196 " clip-rule="nonzero"/></clipPath><clipPath id="b51b02c14e"><path d="M 28.449219 163.214844 L 418.320312 42.332031 L 503.542969 317.1875 L 113.675781 438.070312 Z M 28.449219 163.214844 " clip-rule="nonzero"/></clipPath><clipPath id="d4fe82e335"><path d="M 28.449219 163.214844 L 418.320312 42.332031 L 503.542969 317.1875 L 113.675781 438.070312 Z M 28.449219 163.214844 " clip-rule="nonzero"/></clipPath><clipPath id="dab7df02c6"><path d="M 28.449219 163.214844 L 418.320312 42.332031 L 503.542969 317.1875 L 113.675781 438.070312 Z M 28.449219 163.214844 " clip-rule="nonzero"/></clipPath><clipPath id="d0e21d396c"><path d="M 120.839844 486.265625 L 675.960938 486.265625 L 675.960938 539 L 120.839844 539 Z M 120.839844 486.265625 " clip-rule="nonzero"/></clipPath><clipPath id="3f0a9fabc9"><path d="M 364.007812 452.601562 L 431.359375 452.601562 L 431.359375 519.953125 L 364.007812 519.953125 Z M 364.007812 452.601562 " clip-rule="nonzero"/></clipPath></defs><g clip-path="url(#d247ffb00f)"><path fill="#1e1a1b" d="M 931.8125 371.613281 C 915.632812 377.304688 892.113281 367.941406 891.480469 348.957031 C 940.585938 326.179688 919.644531 282.570312 890.503906 309.871094 C 872.632812 286.128906 836.59375 313.871094 886.363281 347.773438 C 885.691406 369.101562 855.578125 380.679688 839.441406 368.257812 C 838.695312 367.574219 838.03125 366.816406 837.449219 365.984375 C 834.785156 362.988281 831.773438 366.957031 834.195312 369.5625 C 848.410156 386.8125 880.917969 379.035156 889.082031 359.246094 C 896.25 374.527344 915.675781 382.03125 931.652344 377.839844 C 936.304688 376.335938 946.84375 372.144531 943.601562 365.984375 C 940.207031 362.207031 938.066406 370.210938 931.8125 371.613281 Z M 857.371094 337.652344 C 857.390625 337.683594 857.410156 337.714844 857.429688 337.746094 C 859.558594 341.542969 859.238281 342.570312 858.640625 343.074219 C 858.421875 343.261719 858.164062 343.355469 857.871094 343.351562 C 857.058594 343.351562 856.167969 342.636719 855.675781 342.238281 C 855.640625 342.207031 855.605469 342.175781 855.574219 342.140625 C 837.199219 321.707031 809.769531 310.714844 771.714844 308.53125 C 771.484375 308.523438 771.285156 308.433594 771.125 308.265625 C 770.964844 308.097656 770.882812 307.898438 770.878906 307.664062 C 770.875 307.433594 770.953125 307.230469 771.109375 307.0625 C 771.269531 306.890625 771.460938 306.796875 771.695312 306.78125 C 786.308594 305.605469 803.417969 307.75 818.625 312.675781 C 830.78125 316.613281 847.371094 324.140625 857.371094 337.652344 Z M 740.871094 334.84375 C 740.65625 334.910156 740.445312 334.894531 740.238281 334.800781 C 740.03125 334.703125 739.886719 334.546875 739.796875 334.335938 C 739.710938 334.125 739.707031 333.914062 739.789062 333.699219 C 739.867188 333.484375 740.007812 333.328125 740.210938 333.222656 C 769.53125 318.175781 822.964844 322.753906 848.089844 342.464844 C 852.136719 345.992188 852.0625 346.949219 851.644531 347.628906 C 851.382812 348.042969 851.003906 348.230469 850.511719 348.191406 C 849.847656 348.191406 849.035156 347.898438 848.269531 347.585938 C 848.230469 347.570312 848.191406 347.550781 848.152344 347.527344 C 813.671875 327.183594 778.578125 323.03125 740.871094 334.84375 Z M 841.921875 355.347656 C 809.710938 346.234375 785.023438 347.363281 759.371094 359.125 C 759.164062 359.222656 758.953125 359.234375 758.738281 359.167969 C 758.523438 359.101562 758.355469 358.96875 758.242188 358.777344 C 758.128906 358.582031 758.09375 358.371094 758.140625 358.152344 C 758.183594 357.929688 758.300781 357.753906 758.480469 357.621094 C 777.410156 343.644531 819.222656 340.148438 841.335938 350.691406 C 844.636719 352.59375 845.128906 353.542969 844.871094 354.390625 C 844.523438 355.539062 842.890625 355.433594 842.105469 355.378906 C 842.042969 355.375 841.984375 355.367188 841.921875 355.347656 Z M 1007.371094 306.78125 C 1007.605469 306.796875 1007.800781 306.890625 1007.957031 307.0625 C 1008.113281 307.230469 1008.191406 307.433594 1008.1875 307.664062 C 1008.1875 307.898438 1008.105469 308.097656 1007.941406 308.265625 C 1007.78125 308.433594 1007.585938 308.523438 1007.351562 308.53125 C 969.296875 310.714844 941.867188 321.707031 923.492188 342.140625 C 923.460938 342.175781 923.425781 342.207031 923.390625 342.238281 C 922.898438 342.632812 922.007812 343.351562 921.195312 343.351562 C 920.902344 343.355469 920.644531 343.261719 920.425781 343.074219 C 919.828125 342.570312 919.507812 341.542969 921.636719 337.746094 C 921.65625 337.714844 921.675781 337.683594 921.695312 337.652344 C 931.695312 324.140625 948.285156 316.613281 960.441406 312.675781 C 975.652344 307.75 992.757812 305.605469 1007.371094 306.78125 Z M 1039.269531 334.335938 C 1039.183594 334.550781 1039.035156 334.703125 1038.832031 334.800781 C 1038.625 334.898438 1038.410156 334.910156 1038.195312 334.84375 C 1000.484375 323.035156 965.394531 327.179688 930.914062 347.53125 C 930.878906 347.550781 930.839844 347.570312 930.796875 347.585938 C 930.03125 347.898438 929.21875 348.191406 928.554688 348.191406 C 928.0625 348.230469 927.6875 348.042969 927.421875 347.628906 C 927.003906 346.949219 926.933594 345.996094 930.941406 342.496094 C 956.101562 322.757812 1009.539062 318.175781 1038.855469 333.222656 C 1039.058594 333.328125 1039.199219 333.484375 1039.28125 333.699219 C 1039.359375 333.914062 1039.355469 334.125 1039.269531 334.335938 Z M 1020.585938 357.621094 C 1020.769531 357.753906 1020.882812 357.929688 1020.929688 358.152344 C 1020.972656 358.371094 1020.941406 358.582031 1020.824219 358.773438 C 1020.710938 358.96875 1020.542969 359.101562 1020.328125 359.167969 C 1020.113281 359.234375 1019.902344 359.21875 1019.695312 359.125 C 994.042969 347.359375 969.355469 346.234375 937.144531 355.347656 C 937.082031 355.367188 937.023438 355.375 936.960938 355.382812 C 936.175781 355.433594 934.542969 355.539062 934.195312 354.390625 C 933.9375 353.542969 934.429688 352.59375 937.671875 350.722656 C 959.84375 340.148438 1001.65625 343.644531 1020.585938 357.621094 Z M 1020.585938 357.621094 " fill-opacity="1" fill-rule="nonzero"/></g><g clip-path="url(#08973b609b)"><g clip-path="url(#f5b8a81eb4)"><g clip-path="url(#e3b88d37e4)"><g clip-path="url(#111eef03a6)"><path fill="#ffffff" d="M 262.136719 173.785156 C 252.035156 142.136719 249.816406 118.351562 278.320312 95.953125 C 287.625 88.3125 297.9375 82.023438 308.777344 76.804688 C 312.113281 75.316406 315.832031 75.015625 319.414062 74.429688 C 341.816406 73.703125 363.207031 83.828125 382.917969 93.464844 C 416.296875 110.578125 443.164062 139.164062 458.546875 173.355469 C 459.808594 176.230469 460.773438 179.253906 461.167969 182.402344 C 461.265625 183.457031 462.21875 184.570312 461.613281 185.503906 C 460.460938 187.269531 459.359375 189.199219 457.171875 189.988281 C 454.542969 190.9375 451.902344 191.839844 449.132812 192.296875 C 419.183594 196.105469 389.363281 186.796875 361.015625 178.105469 C 360.027344 178.117188 360.960938 179.546875 361.097656 180.054688 C 368.195312 200.554688 367.03125 222.941406 365.191406 244.261719 C 364.507812 247.386719 362.617188 271.84375 359.929688 270.285156 C 358.503906 270.203125 359.203125 268.3125 359.144531 267.375 C 361.738281 237.75 361.460938 207.332031 353.496094 178.5 C 352.976562 177.09375 352.445312 175.339844 351.046875 174.601562 C 349.242188 173.902344 347.4375 173.210938 345.625 172.546875 C 345.140625 172.367188 344.8125 172.707031 344.917969 173.253906 C 349.125 194.421875 350.3125 216.066406 348.5625 237.570312 C 348.179688 247.074219 346.980469 256.574219 347.4375 266.09375 C 347.972656 269.257812 345.894531 268.84375 343.53125 269.597656 C 338.929688 270.683594 334.40625 272.042969 330.023438 273.824219 C 327.589844 274.847656 327.285156 274.753906 326.015625 272.378906 C 320.019531 261.140625 313.816406 250.007812 308.625 238.363281 C 297.722656 215.261719 289.992188 190.546875 288.125 164.972656 C 287.695312 157.671875 287.105469 150.097656 289.167969 142.992188 C 289.496094 142.003906 289.429688 141.179688 288.539062 140.519531 C 288.316406 140.351562 288.136719 140.113281 287.972656 139.882812 C 287.617188 139.492188 287.96875 138.695312 288.550781 139.046875 C 321.890625 158.003906 357.839844 171.4375 394.996094 180.757812 C 410.671875 184.507812 426.683594 188.085938 442.894531 187.617188 C 446.6875 187.46875 450.472656 187.09375 454.101562 185.894531 C 456.429688 185.132812 456.714844 184.664062 456.355469 182.3125 C 454.808594 174.480469 450.875 167.191406 446.699219 160.460938 C 420.332031 118.742188 375.089844 88.175781 326.101562 81.117188 C 315.003906 79.835938 305.378906 86.023438 296.359375 91.625 C 289.054688 94.570312 282.921875 99.703125 276.976562 104.828125 C 268.050781 112.851562 260.109375 123.191406 259.90625 135.683594 C 259.496094 156.476562 266.929688 176.476562 274.324219 195.59375 C 284.332031 220.175781 295.058594 244.460938 304.363281 269.328125 C 305.851562 273.199219 307.300781 277.089844 308.871094 280.933594 C 309.050781 281.40625 309.113281 281.914062 308.664062 282.320312 C 307.972656 282.949219 307.132812 282.875 306.71875 282.023438 C 305.902344 280.351562 305.164062 278.644531 304.429688 276.9375 C 297.898438 261.679688 291.660156 246.296875 284.949219 231.117188 C 276.890625 212.0625 268.085938 193.742188 262.140625 173.792969 Z M 262.136719 173.785156 " fill-opacity="1" fill-rule="nonzero"/></g></g></g></g><g clip-path="url(#53a6e8c5e6)"><g clip-path="url(#b51b02c14e)"><g clip-path="url(#d4fe82e335)"><g clip-path="url(#dab7df02c6)"><path fill="#ffffff" d="M 116.40625 412.675781 C 117.390625 416.253906 118.734375 419.433594 120.566406 422.484375 C 121.867188 424.460938 122.492188 424.664062 124.664062 423.875 C 144.824219 405.96875 168.027344 389.175781 181.816406 365.417969 C 189.410156 351.054688 191.636719 334.707031 192.59375 318.699219 C 194.332031 294.632812 194.160156 270.175781 199.003906 246.476562 C 201.996094 234.804688 209.441406 223.183594 220.425781 217.753906 C 221.84375 217.214844 225.398438 217.65625 223.382812 219.726562 C 220.367188 222.246094 216.816406 224.09375 214.332031 227.246094 C 214.011719 227.652344 213.179688 228.324219 213.714844 228.867188 C 218.574219 233.308594 223.675781 237.496094 227.972656 242.511719 C 244.757812 261.679688 263.722656 279.363281 276.914062 301.308594 C 278.128906 302.476562 276.363281 303.3125 275.53125 304.050781 C 270.292969 308.167969 265.34375 312.613281 260.648438 317.34375 C 259.703125 318.261719 258.648438 318.457031 257.492188 317.9375 C 250.28125 314.449219 243.449219 310.195312 236.414062 306.371094 C 230.378906 302.933594 224.308594 299.5625 218.410156 295.890625 C 212.539062 291.898438 207.65625 286.671875 202.332031 282.011719 C 200.953125 280.269531 199.898438 280.417969 200.113281 282.765625 C 200.238281 285.117188 198.753906 289.183594 200.714844 290.777344 C 203.386719 293.160156 206.046875 295.554688 208.863281 297.769531 C 220.816406 307.359375 232.914062 316.765625 245.714844 325.203125 C 246.457031 325.957031 249.285156 326.792969 248.769531 327.796875 C 248.195312 328.488281 247.277344 327.578125 246.652344 327.371094 C 229.921875 318.9375 214.078125 308.480469 199.546875 296.929688 C 199.058594 297.113281 199.160156 297.628906 199.144531 298.039062 C 198.664062 308.910156 198.304688 319.789062 197.074219 330.609375 C 193.722656 373.375 168.875 389.542969 139.679688 415.886719 C 133.597656 421.078125 123.855469 434.871094 116.257812 424.605469 C 102.621094 402.410156 109.070312 374.800781 108.921875 350.160156 C 110.414062 307.53125 108.324219 262.324219 128.167969 223.269531 C 133.683594 213.710938 141.242188 202.25 152.691406 199.785156 C 172.917969 197.28125 193.515625 194.851562 213.867188 196.996094 C 222.835938 198.320312 227.828125 206.585938 233.109375 213.074219 C 246.382812 230.421875 257.769531 249.101562 270.324219 266.957031 C 275.78125 275.066406 282.917969 281.789062 288.804688 289.550781 C 289.265625 290.332031 290.402344 291.179688 289.960938 292.140625 C 289.386719 293.109375 288.332031 292.882812 287.523438 292.363281 C 277.421875 286.375 270.082031 276.859375 263.140625 267.589844 C 249.039062 248.109375 236.378906 227.601562 221.375 208.773438 C 218.929688 205.539062 215.84375 202.785156 211.679688 202.226562 C 202.835938 200.714844 193.828125 200.957031 184.914062 201.628906 C 175.113281 202.449219 165.136719 203.140625 155.65625 205.894531 C 143.84375 209.53125 135.03125 220.976562 129.5625 231.585938 C 116.902344 264.027344 116.246094 299.402344 115.152344 333.765625 C 114.808594 351.804688 113.371094 369.800781 113.089844 387.839844 C 113.089844 396.144531 113.792969 404.816406 116.40625 412.683594 Z M 116.40625 412.675781 " fill-opacity="1" fill-rule="nonzero"/></g></g></g></g><g fill="#ffffff" fill-opacity="1"><g transform="translate(299.277398, 573.769026)"><g><path d="M -4.054688 -4.339844 L -11.972656 -12.816406 L -56.710938 28.984375 L -48.792969 37.457031 Z M -4.054688 -4.339844 "/></g></g></g><g fill="#ffffff" fill-opacity="1"><g transform="translate(283.448715, 556.877598)"><g><path d="M -45.640625 16.621094 C -47.625 13.679688 -51.765625 12.824219 -54.804688 14.878906 C -57.808594 16.910156 -58.554688 21.074219 -56.566406 24.011719 C -54.535156 27.015625 -50.394531 27.871094 -47.390625 25.839844 C -44.351562 23.785156 -43.605469 19.625 -45.640625 16.621094 Z M -3.328125 -4.921875 L -9.804688 -14.496094 L -43.746094 8.460938 L -37.269531 18.035156 Z M -3.328125 -4.921875 "/></g></g></g><g fill="#ffffff" fill-opacity="1"><g transform="translate(270.472515, 538.51274)"><g><path d="M -8.535156 -19.410156 L -11.585938 -26.34375 L -19.578125 -22.832031 L -18.085938 -19.4375 C -16.898438 -16.738281 -17.671875 -14.4375 -21.027344 -12.960938 L -37.628906 -5.660156 L -41.03125 -13.394531 L -49.097656 -9.847656 L -45.695312 -2.113281 L -57.808594 3.214844 L -53.636719 12.699219 L -48.675781 10.519531 C -43.054688 8.046875 -40.558594 9.5625 -38.808594 13.539062 L -37.765625 15.910156 L -29.703125 12.367188 L -32.945312 4.996094 L -15.210938 -2.804688 C -7.730469 -6.09375 -5.328125 -12.113281 -8.535156 -19.410156 Z M -8.535156 -19.410156 "/></g></g></g><g fill="#ffffff" fill-opacity="1"><g transform="translate(258.201264, 511.020461)"><g><path d="M -4.429688 -20.738281 L -6.011719 -28.144531 L -14.546875 -26.320312 L -13.773438 -22.695312 C -13.15625 -19.8125 -14.378906 -17.714844 -17.96875 -16.949219 L -35.703125 -13.164062 L -37.46875 -21.425781 L -46.082031 -19.585938 L -44.320312 -11.324219 L -57.261719 -8.558594 L -55.097656 1.574219 L -49.796875 0.445312 C -43.792969 -0.839844 -41.65625 1.152344 -40.75 5.398438 L -40.207031 7.933594 L -31.59375 6.09375 L -33.273438 -1.78125 L -14.328125 -5.824219 C -6.335938 -7.53125 -2.765625 -12.941406 -4.429688 -20.738281 Z M -4.429688 -20.738281 "/></g></g></g><g fill="#ffffff" fill-opacity="1"><g transform="translate(252.07594, 480.947937)"><g><path d="M -0.179688 -5.9375 L -0.523438 -17.53125 L -61.722656 -15.695312 L -61.378906 -4.101562 Z M -0.179688 -5.9375 "/></g></g></g><g fill="#ffffff" fill-opacity="1"><g transform="translate(249.857688, 459.543473)"><g><path d="M -12.078125 -47.722656 C -26.167969 -50.460938 -34.136719 -43.21875 -36.382812 -31.835938 C -38.828125 -19.441406 -32.804688 -9.191406 -19.585938 -6.585938 C -6.367188 -3.976562 2.972656 -10.953125 5.535156 -23.9375 C 7.316406 -32.96875 4.089844 -41.121094 -3.523438 -45.386719 L -7.082031 -35.363281 C -3.824219 -33.136719 -2.566406 -29.636719 -3.359375 -25.609375 C -4.417969 -20.25 -8.503906 -16.425781 -15.28125 -17.273438 L -9.40625 -47.074219 Z M -28.386719 -30.34375 C -27.4375 -35.152344 -23.875 -38.1875 -18.171875 -37.429688 L -21.851562 -18.773438 C -27.582031 -20.839844 -29.445312 -24.984375 -28.386719 -30.34375 Z M -28.386719 -30.34375 "/></g></g></g><g fill="#ffffff" fill-opacity="1"><g transform="translate(259.751214, 415.499535)"><g/></g></g><g fill="#ffffff" fill-opacity="1"><g transform="translate(265.48657, 397.234837)"><g><path d="M -15.296875 -49.113281 C -18.558594 -44.78125 -19.78125 -39.714844 -18.261719 -35.574219 L -38.414062 -50.761719 L -45.320312 -41.59375 L 3.574219 -4.742188 L 10.125 -13.433594 L 6.027344 -16.871094 C 10.632812 -16.292969 15.421875 -18.875 18.828125 -23.394531 C 25.304688 -31.988281 24.3125 -43.917969 13.617188 -51.980469 C 2.921875 -60.039062 -8.820312 -57.707031 -15.296875 -49.113281 Z M 9.613281 -26.996094 C 5.941406 -22.125 -0.636719 -21.144531 -6.367188 -25.460938 C -12.097656 -29.78125 -12.972656 -36.429688 -9.328125 -41.269531 C -5.65625 -46.140625 0.820312 -47.25 6.707031 -42.8125 C 12.566406 -38.398438 13.285156 -31.867188 9.613281 -26.996094 Z M 9.613281 -26.996094 "/></g></g></g><g fill="#ffffff" fill-opacity="1"><g transform="translate(293.892305, 358.608026)"><g><path d="M 3.710938 -52.535156 L 16.632812 -33.992188 C 20.910156 -27.789062 18.746094 -23.367188 14.855469 -20.652344 C 11.585938 -18.375 7.664062 -18.074219 4.566406 -22.519531 L -9.792969 -43.121094 L -19.246094 -36.535156 L -3.472656 -13.90625 C 1.703125 -6.480469 9.089844 -5.363281 17.167969 -10.992188 C 21.777344 -14.207031 24.296875 -18.539062 24.578125 -23.15625 L 27.632812 -19.261719 L 36.558594 -25.484375 L 13.128906 -59.101562 Z M 3.710938 -52.535156 "/></g></g></g><g fill="#ffffff" fill-opacity="1"><g transform="translate(331.384422, 331.642438)"><g><path d="M 16.558594 -48.777344 C 11.375 -47.1875 7.71875 -44.019531 5.96875 -39.941406 L 4.636719 -44.285156 L -6.339844 -40.917969 L 5.679688 -1.742188 L 16.652344 -5.109375 L 10.023438 -26.714844 C 7.878906 -33.980469 11.292969 -37.527344 15.828125 -38.921875 C 19.601562 -40.078125 23.425781 -39.167969 25.027344 -33.945312 L 32.390625 -9.9375 L 43.40625 -13.316406 L 35.316406 -39.6875 C 32.648438 -48.375 25.972656 -51.664062 16.558594 -48.777344 Z M 16.558594 -48.777344 "/></g></g></g><g fill="#ffffff" fill-opacity="1"><g transform="translate(375.402022, 317.424025)"><g><path d="M 30.699219 -41.359375 C 25.28125 -41.433594 20.828125 -39.542969 17.914062 -36.191406 L 17.976562 -40.734375 L 6.496094 -40.894531 L 5.9375 0.0820312 L 17.417969 0.238281 L 17.726562 -22.363281 C 17.910156 -29.933594 22.246094 -32.265625 26.988281 -32.203125 C 30.933594 -32.148438 34.296875 -30.109375 34.222656 -24.648438 L 33.878906 0.460938 L 45.398438 0.617188 L 45.773438 -26.964844 C 45.898438 -36.050781 40.546875 -41.226562 30.699219 -41.359375 Z M 30.699219 -41.359375 "/></g></g></g><g fill="#ffffff" fill-opacity="1"><g transform="translate(423.366105, 319.367491)"><g><path d="M 22.988281 -42.785156 C 26.425781 -41.917969 30.085938 -44.035156 30.984375 -47.589844 C 31.875 -51.105469 29.660156 -54.710938 26.21875 -55.578125 C 22.703125 -56.46875 19.042969 -54.351562 18.15625 -50.832031 C 17.253906 -47.277344 19.46875 -43.675781 22.988281 -42.785156 Z M 5.757812 1.457031 L 16.964844 4.289062 L 27.007812 -35.4375 L 15.800781 -38.273438 Z M 5.757812 1.457031 "/></g></g></g><g fill="#ffffff" fill-opacity="1"><g transform="translate(444.519037, 323.090136)"><g><path d="M 49.207031 1.453125 C 55.699219 -11.34375 50.914062 -20.992188 40.585938 -26.269531 C 29.332031 -32.015625 17.824219 -29.03125 11.699219 -17.03125 C 5.570312 -5.03125 9.71875 5.859375 21.503906 11.878906 C 29.707031 16.066406 38.429688 15.195312 44.617188 9.046875 L 35.949219 2.875 C 32.917969 5.398438 29.207031 5.652344 25.550781 3.785156 C 20.6875 1.300781 18.125 -3.679688 20.800781 -9.964844 L 47.851562 3.847656 Z M 36.957031 -18.992188 C 41.324219 -16.761719 43.265625 -12.5 40.976562 -7.226562 L 24.042969 -15.875 C 27.597656 -20.816406 32.09375 -21.476562 36.957031 -18.992188 Z M 36.957031 -18.992188 "/></g></g></g><g fill="#ffffff" fill-opacity="1"><g transform="translate(483.542319, 343.039211)"><g><path d="M 14.441406 14.386719 C 20.949219 20.382812 29.136719 23.320312 35.511719 16.402344 C 41.453125 9.953125 38.214844 3.230469 34.714844 -2.324219 C 31.878906 -6.835938 28.824219 -10.519531 31.011719 -12.894531 C 32.738281 -14.769531 35.375 -13.804688 37.601562 -11.753906 C 40.0625 -9.484375 41.140625 -6.652344 39.457031 -3 L 47.988281 2.152344 C 52.109375 -4.675781 48.621094 -12.007812 42.757812 -17.410156 C 36.074219 -23.566406 28.324219 -25.449219 22.625 -19.265625 C 17.953125 -14.191406 19.628906 -9.070312 22.074219 -4.488281 C 25.285156 1.613281 29.792969 6.253906 26.929688 9.417969 C 24.800781 11.847656 21.949219 10.414062 19.871094 8.496094 C 17.027344 5.875 15.898438 2.507812 17.960938 -1.554688 L 9.058594 -6.070312 C 4.878906 0.644531 7.667969 8.148438 14.441406 14.386719 Z M 14.441406 14.386719 "/></g></g></g><g fill="#ffffff" fill-opacity="1"><g transform="translate(511.413752, 369.78626)"><g/></g></g><g fill="#ffffff" fill-opacity="1"><g transform="translate(524.102006, 384.530493)"><g><path d="M 9.09375 22.734375 C 13.15625 32.050781 21.3125 37.191406 30.988281 35.144531 L 27.808594 24.964844 C 22.839844 25.738281 19.304688 23.414062 17.375 18.992188 C 14.90625 13.328125 17.722656 7.53125 24.410156 4.613281 C 31.132812 1.683594 37.265625 3.574219 39.734375 9.238281 C 41.664062 13.65625 41 17.816406 37.015625 20.949219 L 42.316406 30.203125 C 50.394531 24.503906 52.21875 15.226562 48.074219 5.726562 C 42.925781 -6.074219 31.511719 -11.007812 19.820312 -5.90625 C 8.164062 -0.824219 3.945312 10.933594 9.09375 22.734375 Z M 9.09375 22.734375 "/></g></g></g><g fill="#ffffff" fill-opacity="1"><g transform="translate(540.948754, 425.795488)"><g><path d="M 48.492188 2.78125 C 49.152344 6.265625 52.617188 8.691406 56.222656 8.007812 C 59.785156 7.328125 62.117188 3.800781 61.453125 0.316406 C 60.773438 -3.246094 57.308594 -5.671875 53.746094 -4.992188 C 50.144531 -4.308594 47.8125 -0.78125 48.492188 2.78125 Z M 1.109375 5.835938 L 3.269531 17.191406 L 43.527344 9.53125 L 41.363281 -1.828125 Z M 1.109375 5.835938 "/></g></g></g><g fill="#ffffff" fill-opacity="1"><g transform="translate(545.576814, 447.846931)"><g><path d="M 35.082031 16.84375 L 41.136719 16.429688 L 41.03125 5.546875 L 0.0585938 5.9375 L 0.167969 17.5 L 20.136719 17.308594 C 28.828125 17.222656 31.417969 21.34375 31.5 30.035156 L 41.742188 29.9375 C 41.6875 24.238281 38.570312 19.042969 35.082031 16.84375 Z M 35.082031 16.84375 "/></g></g></g><g fill="#ffffff" fill-opacity="1"><g transform="translate(547.141969, 476.339609)"><g><path d="M -6.449219 23.621094 C -8.820312 33.507812 -5.410156 42.523438 3.542969 46.722656 L 7.140625 36.679688 C 2.710938 34.304688 1.292969 30.316406 2.417969 25.625 C 3.859375 19.617188 9.601562 16.695312 16.695312 18.394531 C 23.828125 20.109375 27.582031 25.3125 26.136719 31.320312 C 25.011719 36.011719 21.976562 38.929688 16.910156 39.027344 L 15.558594 49.605469 C 25.445312 49.929688 32.488281 43.625 34.910156 33.546875 C 37.914062 21.027344 31.777344 10.210938 19.375 7.234375 C 7.011719 4.265625 -3.445312 11.101562 -6.449219 23.621094 Z M -6.449219 23.621094 "/></g></g></g><g fill="#ffffff" fill-opacity="1"><g transform="translate(535.731342, 519.409934)"><g><path d="M -2.632812 5.324219 L -7.769531 15.722656 L 47.121094 42.851562 L 52.257812 32.449219 Z M -2.632812 5.324219 "/></g></g></g><g fill="#ffffff" fill-opacity="1"><g transform="translate(527.628552, 539.346465)"><g><path d="M -11.75 47.804688 C -0.601562 56.839844 9.835938 54.1875 17.164062 45.195312 C 25.144531 35.398438 24.640625 23.523438 14.195312 15.011719 C 3.75 6.5 -7.769531 8.273438 -16.128906 18.53125 C -21.945312 25.671875 -22.925781 34.382812 -18.210938 41.722656 L -10.355469 34.546875 C -12.1875 31.050781 -11.65625 27.367188 -9.0625 24.1875 C -5.613281 19.953125 -0.207031 18.496094 5.378906 22.429688 L -13.808594 45.976562 Z M 10.808594 40.121094 C 7.714844 43.921875 3.140625 44.925781 -1.535156 41.578125 L 10.472656 26.839844 C 14.5625 31.351562 14.257812 35.886719 10.808594 40.121094 Z M 10.808594 40.121094 "/></g></g></g><g clip-path="url(#d0e21d396c)"><path fill="#ffffff" d="M 176.839844 524.777344 C 172.34375 525.457031 167.867188 526.367188 163.449219 527.5 C 159.039062 528.648438 154.566406 529.777344 150.40625 531.703125 C 146.253906 533.609375 142.238281 535.839844 138.632812 538.699219 L 138.78125 538.972656 C 143.164062 537.605469 147.355469 536.023438 151.570312 534.539062 C 155.792969 533.074219 159.875 531.234375 164.140625 529.847656 C 168.402344 528.445312 172.734375 527.253906 177.125 526.28125 C 181.507812 525.257812 185.957031 524.453125 190.441406 523.875 L 190.410156 523.570312 C 185.882812 523.742188 181.351562 524.148438 176.839844 524.777344 Z M 154.28125 508.273438 C 158.898438 507.148438 163.65625 506.496094 168.441406 506.335938 C 173.222656 506.125 178.050781 506.414062 182.8125 507.230469 L 182.878906 506.933594 C 178.179688 505.710938 173.328125 505.003906 168.4375 504.804688 C 163.542969 504.660156 158.621094 505.019531 153.773438 505.878906 C 148.941406 506.753906 144.0625 507.886719 139.609375 510.074219 C 135.171875 512.234375 131 514.988281 127.570312 518.511719 L 127.753906 518.761719 C 132.152344 516.621094 136.429688 514.582031 140.847656 512.875 C 145.257812 511.195312 149.644531 509.382812 154.28125 508.273438 Z M 148.519531 489.710938 C 153.246094 488.847656 158.070312 488.425781 162.902344 488.464844 C 167.738281 488.457031 172.59375 488.90625 177.375 489.851562 L 177.449219 489.554688 C 172.742188 488.210938 167.878906 487.335938 162.964844 486.933594 C 158.042969 486.585938 153.078125 486.703125 148.152344 487.289062 C 143.242188 487.886719 138.273438 488.707031 133.640625 490.574219 C 129.015625 492.414062 124.605469 494.828125 120.839844 498.042969 L 120.996094 498.304688 C 125.609375 496.554688 130.089844 494.851562 134.667969 493.457031 C 139.238281 492.089844 143.78125 490.554688 148.519531 489.710938 Z M 646.101562 528.53125 C 642.640625 526.398438 638.703125 525.214844 634.816406 524.222656 C 630.914062 523.25 626.917969 522.6875 622.925781 522.566406 C 618.929688 522.492188 614.941406 522.8125 611.078125 523.660156 L 611.125 523.960938 C 615.035156 523.597656 618.960938 523.617188 622.820312 524.089844 C 626.675781 524.511719 630.476562 525.351562 634.121094 526.574219 C 637.792969 527.78125 641.171875 529.597656 644.621094 531.21875 C 648.082031 532.863281 651.414062 534.757812 654.90625 536.707031 L 655.113281 536.476562 C 652.71875 533.238281 649.550781 530.628906 646.101562 528.53125 Z M 641.554688 503.59375 C 636.65625 503.152344 631.730469 503.171875 626.859375 503.652344 C 621.996094 504.183594 617.199219 505.179688 612.570312 506.632812 L 612.652344 506.929688 C 617.363281 505.875 622.171875 505.296875 626.960938 505.179688 C 631.753906 505.007812 636.546875 505.300781 641.257812 506.023438 C 645.980469 506.730469 650.527344 508.128906 655.101562 509.351562 C 659.683594 510.601562 664.171875 512.15625 668.804688 513.746094 L 668.953125 513.480469 C 665.117188 510.398438 660.671875 508.132812 656.042969 506.4375 C 651.390625 504.71875 646.441406 504.050781 641.554688 503.59375 Z M 675.960938 495.546875 L 675.859375 495.835938 C 670.734375 494.960938 665.75 493.992188 660.730469 493.253906 C 655.71875 492.539062 650.738281 491.5625 645.65625 491.207031 C 640.585938 490.828125 635.476562 490.816406 630.378906 491.164062 C 625.28125 491.460938 620.1875 492.128906 615.15625 493.171875 L 615.078125 492.875 C 620.023438 491.4375 625.09375 490.355469 630.226562 489.640625 C 635.367188 488.980469 640.5625 488.683594 645.761719 488.761719 C 650.957031 488.855469 656.214844 489.058594 661.304688 490.246094 C 666.390625 491.410156 671.367188 493.074219 675.960938 495.546875 " fill-opacity="1" fill-rule="nonzero"/></g><g clip-path="url(#3f0a9fabc9)"><path fill="#f87d98" d="M 419.425781 503.257812 C 417.710938 505.742188 416.085938 508.214844 414.257812 510.527344 C 412.375 512.902344 410.347656 515.167969 408.285156 517.386719 C 407.1875 518.570312 405.890625 519.613281 404.203125 519.828125 C 403.417969 519.925781 402.558594 519.960938 401.8125 519.746094 C 398.085938 518.671875 394.648438 516.972656 391.738281 514.359375 C 389.089844 511.980469 386.460938 509.570312 383.980469 507.019531 C 382.308594 505.300781 380.804688 503.390625 379.417969 501.429688 C 376.699219 497.589844 373.996094 493.726562 371.507812 489.734375 C 369.695312 486.832031 368.121094 483.78125 366.804688 480.582031 C 365.773438 478.089844 365.058594 475.523438 364.597656 472.921875 C 364 469.546875 364.214844 466.140625 365.804688 462.984375 C 367.386719 459.839844 369.953125 457.894531 373.273438 456.917969 C 376.296875 456.03125 379.285156 456.214844 382.238281 457.292969 C 384.804688 458.226562 387.039062 459.683594 389.011719 461.578125 C 392.226562 464.671875 394.640625 468.335938 396.625 472.308594 C 396.960938 472.976562 397.144531 473.71875 397.410156 474.421875 C 397.460938 474.554688 397.578125 474.660156 397.664062 474.777344 C 397.722656 474.652344 397.800781 474.53125 397.839844 474.402344 C 398.769531 471.332031 399.984375 468.386719 401.519531 465.574219 C 402.777344 463.273438 404.269531 461.148438 406.019531 459.1875 C 407.964844 457.007812 410.277344 455.371094 412.894531 454.15625 C 414.417969 453.449219 416.035156 453.070312 417.714844 452.832031 C 419.222656 452.613281 420.679688 452.753906 422.105469 453.074219 C 423.652344 453.421875 425.105469 454.121094 426.328125 455.191406 C 429.050781 457.578125 430.433594 460.679688 430.960938 464.207031 C 431.136719 465.359375 431.355469 466.539062 431.273438 467.6875 C 431.105469 470.050781 430.878906 472.425781 430.4375 474.75 C 429.839844 477.925781 429.148438 481.097656 428.253906 484.199219 C 427.578125 486.53125 426.585938 488.777344 425.621094 491.011719 C 424.574219 493.441406 423.445312 495.839844 422.253906 498.203125 C 421.394531 499.902344 420.375 501.519531 419.425781 503.257812 M 414.15625 498.875 C 414.804688 497.773438 415.460938 496.667969 416.105469 495.5625 C 416.605469 494.707031 417.226562 493.890625 417.558594 492.96875 C 418.210938 491.160156 418.722656 489.296875 419.253906 487.445312 C 419.675781 485.960938 420.0625 484.464844 420.425781 482.964844 C 420.84375 481.222656 421.222656 479.476562 421.597656 477.726562 C 421.84375 476.589844 422.054688 475.445312 422.265625 474.300781 C 422.285156 474.1875 422.203125 474.058594 422.167969 473.9375 C 422.035156 474.019531 421.816406 474.078125 421.78125 474.191406 C 421.261719 475.886719 420.710938 477.574219 420.277344 479.292969 C 419.679688 481.660156 419.257812 484.078125 418.621094 486.4375 C 417.472656 490.699219 415.453125 494.605469 413.5 498.53125 C 412.808594 499.925781 412.152344 501.335938 411.496094 502.75 C 411.429688 502.890625 411.484375 503.085938 411.480469 503.257812 C 411.578125 503.160156 411.695312 503.078125 411.761719 502.964844 C 412.539062 501.632812 413.304688 500.296875 414.15625 498.875 M 380.691406 489.101562 C 379.824219 487.164062 378.851562 485.265625 378.125 483.277344 C 377.277344 480.960938 376.644531 478.5625 375.921875 476.203125 C 375.585938 475.105469 375.265625 474.007812 374.902344 472.921875 C 374.84375 472.742188 374.601562 472.625 374.441406 472.476562 C 374.375 472.675781 374.25 472.875 374.257812 473.070312 C 374.285156 473.75 374.371094 474.425781 374.414062 475.105469 C 374.53125 477.101562 374.988281 479.035156 375.605469 480.917969 C 376.140625 482.566406 376.511719 484.28125 377.519531 485.757812 C 379.25 488.28125 380.914062 490.84375 382.625 493.382812 C 382.730469 493.539062 382.964844 493.605469 383.136719 493.714844 C 383.097656 493.519531 383.101562 493.300781 383.007812 493.132812 C 382.273438 491.8125 381.523438 490.5 380.691406 489.101562 M 391.566406 509.660156 C 389.675781 507.699219 387.769531 505.75 385.898438 503.773438 C 385.074219 502.902344 384.304688 501.972656 383.53125 501.058594 C 381.984375 499.234375 380.457031 497.398438 378.910156 495.578125 C 378.765625 495.40625 378.53125 495.3125 378.335938 495.179688 C 378.40625 495.410156 378.421875 495.683594 378.554688 495.867188 C 379.425781 497.054688 380.277344 498.257812 381.214844 499.386719 C 383.15625 501.734375 385.097656 504.082031 387.132812 506.34375 C 388.628906 508.007812 390.265625 509.539062 391.847656 511.117188 C 392.113281 511.382812 392.421875 511.609375 392.726562 511.832031 C 392.835938 511.910156 392.992188 511.921875 393.125 511.96875 C 393.105469 511.816406 393.140625 511.625 393.058594 511.519531 C 392.605469 510.914062 392.125 510.335938 391.566406 509.660156 M 374.082031 465.761719 C 374.175781 465.722656 374.289062 465.703125 374.363281 465.640625 C 375.808594 464.441406 377.441406 464.054688 379.292969 464.316406 C 381.753906 464.667969 383.785156 465.859375 385.617188 467.449219 C 387.644531 469.214844 389.199219 471.402344 390.816406 473.53125 C 390.882812 473.617188 390.96875 473.6875 391.046875 473.765625 C 391.082031 473.644531 391.179688 473.492188 391.136719 473.402344 C 390.9375 472.980469 390.710938 472.570312 390.472656 472.164062 C 388.980469 469.617188 386.964844 467.515625 384.851562 465.503906 C 384.492188 465.164062 384.058594 464.867188 383.605469 464.679688 C 381.160156 463.679688 378.636719 463.179688 376.0625 464.023438 C 375.09375 464.339844 374.222656 464.984375 373.339844 465.527344 C 373.203125 465.613281 373.230469 465.972656 373.179688 466.203125 C 373.394531 466.144531 373.609375 466.09375 373.816406 466.019531 C 373.890625 465.996094 373.9375 465.90625 374.082031 465.761719 M 395.414062 487.417969 C 394.4375 485.269531 393.464844 483.121094 392.480469 480.980469 C 392.433594 480.875 392.273438 480.824219 392.164062 480.75 C 392.160156 480.898438 392.117188 481.058594 392.160156 481.191406 C 392.425781 482.003906 392.65625 482.839844 393 483.617188 C 393.992188 485.859375 394.542969 488.226562 394.992188 490.617188 C 395.183594 491.636719 395.320312 492.667969 395.511719 493.691406 C 395.542969 493.863281 395.734375 494.003906 395.851562 494.15625 C 395.957031 493.988281 396.097656 493.832031 396.160156 493.652344 C 396.296875 493.257812 396.332031 492.816406 396.515625 492.453125 C 396.902344 491.683594 396.839844 490.964844 396.511719 490.195312 C 396.136719 489.3125 395.832031 488.398438 395.414062 487.417969 M 387.214844 485.730469 C 387.632812 486.621094 388.046875 487.515625 388.476562 488.398438 C 388.550781 488.546875 388.71875 488.644531 388.84375 488.765625 C 388.886719 488.597656 388.996094 488.414062 388.960938 488.261719 C 388.769531 487.394531 388.660156 486.476562 388.296875 485.683594 C 387.789062 484.574219 387.183594 483.472656 386.445312 482.511719 C 384.488281 479.972656 382.4375 477.503906 380.414062 475.015625 C 380.273438 474.84375 380.035156 474.753906 379.839844 474.625 C 379.910156 474.855469 379.925781 475.128906 380.0625 475.308594 C 381.148438 476.769531 382.320312 478.164062 383.339844 479.667969 C 384.667969 481.617188 385.875 483.648438 387.214844 485.730469 M 410.222656 478.90625 C 410.113281 480.402344 409.992188 481.894531 409.898438 483.390625 C 409.886719 483.585938 410.015625 483.785156 410.078125 483.984375 C 410.238281 483.839844 410.46875 483.726562 410.542969 483.546875 C 410.675781 483.238281 410.6875 482.878906 410.789062 482.554688 C 411.742188 479.507812 412.710938 476.464844 413.65625 473.414062 C 413.71875 473.21875 413.636719 472.976562 413.625 472.757812 C 413.453125 472.882812 413.210938 472.96875 413.121094 473.140625 C 412.140625 475 411.1875 476.871094 410.222656 478.90625 M 411.394531 463.066406 C 413.328125 460.945312 415.523438 459.339844 418.53125 459.253906 C 418.667969 459.25 418.921875 458.914062 418.902344 458.765625 C 418.824219 458.214844 418.609375 457.628906 417.910156 457.777344 C 417.054688 457.957031 416.167969 458.167969 415.398438 458.566406 C 413.664062 459.449219 412.28125 460.792969 411.117188 462.351562 C 410.601562 463.042969 410.179688 463.808594 409.730469 464.546875 C 409.675781 464.640625 409.71875 464.789062 409.714844 464.914062 C 409.8125 464.875 409.945312 464.863281 410.003906 464.792969 C 410.449219 464.253906 410.878906 463.699219 411.394531 463.066406 M 386.128906 475.535156 C 385.285156 474.628906 384.496094 473.65625 383.574219 472.835938 C 382.835938 472.179688 381.953125 471.683594 381.097656 471.171875 C 380.890625 471.050781 380.550781 471.164062 380.273438 471.167969 C 380.429688 471.378906 380.566406 471.605469 380.746094 471.792969 C 382.144531 473.25 383.59375 474.664062 384.941406 476.167969 C 385.757812 477.074219 386.417969 478.121094 387.164062 479.09375 C 387.273438 479.238281 387.46875 479.3125 387.628906 479.417969 C 387.628906 479.242188 387.648438 479.066406 387.632812 478.890625 C 387.519531 477.644531 386.917969 476.609375 386.128906 475.535156 M 404.785156 495.335938 C 405.375 494.070312 406.050781 492.832031 406.523438 491.523438 C 406.84375 490.640625 406.902344 489.65625 407.039062 488.710938 C 407.179688 487.722656 407.28125 486.730469 407.367188 485.738281 C 407.378906 485.582031 407.226562 485.410156 407.148438 485.246094 C 407.058594 485.390625 406.933594 485.523438 406.882812 485.683594 C 406.683594 486.300781 406.503906 486.925781 406.324219 487.554688 C 405.480469 490.535156 404.636719 493.519531 403.796875 496.503906 C 403.765625 496.613281 403.785156 496.734375 403.777344 496.851562 C 403.917969 496.808594 404.144531 496.808594 404.1875 496.71875 C 404.386719 496.300781 404.535156 495.855469 404.785156 495.335938 M 404.03125 467.617188 C 405.097656 467.527344 405.65625 466.847656 406.046875 465.917969 C 407.050781 463.523438 408.429688 461.371094 410.234375 459.496094 C 410.503906 459.21875 410.636719 458.804688 410.832031 458.457031 C 410.503906 458.65625 410.113281 458.800781 409.859375 459.074219 C 408.671875 460.332031 407.441406 461.566406 406.382812 462.929688 C 405.335938 464.277344 404.46875 465.769531 403.539062 467.207031 C 403.433594 467.371094 403.429688 467.601562 403.378906 467.800781 C 403.570312 467.765625 403.757812 467.734375 404.03125 467.617188 M 425.785156 465.425781 C 425.742188 465.285156 425.699219 465.144531 425.652344 465.003906 C 425.585938 465.121094 425.464844 465.234375 425.457031 465.355469 C 425.390625 466.507812 425.386719 467.667969 425.273438 468.816406 C 425.027344 471.308594 424.777344 473.804688 424.429688 476.285156 C 424.164062 478.195312 423.742188 480.085938 423.402344 481.988281 C 423.371094 482.164062 423.402344 482.347656 423.402344 482.53125 C 423.527344 482.382812 423.722656 482.253906 423.765625 482.082031 C 424.285156 480 424.839844 477.921875 425.261719 475.816406 C 425.539062 474.421875 425.59375 472.984375 425.792969 471.574219 C 426.074219 469.554688 426.070312 467.535156 425.785156 465.425781 M 421.769531 491.882812 C 421 493.21875 420.152344 494.511719 419.488281 495.898438 C 418.796875 497.34375 418.28125 498.871094 417.699219 500.371094 C 417.640625 500.523438 417.667969 500.710938 417.65625 500.882812 C 417.769531 500.777344 417.925781 500.695312 417.992188 500.5625 C 418.925781 498.765625 419.863281 496.96875 420.761719 495.152344 C 421.574219 493.503906 422.347656 491.832031 423.132812 490.164062 C 423.183594 490.054688 423.160156 489.90625 423.171875 489.777344 C 423.078125 489.875 422.972656 489.96875 422.894531 490.078125 C 422.515625 490.621094 422.144531 491.167969 421.769531 491.882812 M 404.871094 482.109375 C 404.535156 483.171875 404.1875 484.234375 403.878906 485.308594 C 403.828125 485.480469 403.949219 485.703125 403.988281 485.902344 C 404.113281 485.753906 404.292969 485.628906 404.359375 485.457031 C 404.847656 484.207031 405.300781 482.9375 405.796875 481.6875 C 406.40625 480.148438 407.0625 478.628906 407.65625 477.085938 C 407.734375 476.890625 407.570312 476.597656 407.519531 476.351562 C 407.359375 476.5 407.171875 476.625 407.050781 476.800781 C 405.957031 478.355469 405.546875 480.207031 404.871094 482.109375 M 385.710938 489.945312 C 386.101562 490.507812 386.488281 491.078125 386.898438 491.632812 C 386.960938 491.71875 387.117188 491.734375 387.234375 491.78125 C 387.21875 491.664062 387.230469 491.535156 387.183594 491.4375 C 386.953125 490.945312 386.722656 490.453125 386.460938 489.972656 C 385.316406 487.875 384.167969 485.773438 382.996094 483.6875 C 382.792969 483.324219 382.464844 483.03125 382.191406 482.703125 C 382.296875 483.140625 382.316406 483.625 382.519531 484.011719 C 383.527344 485.976562 384.585938 487.914062 385.710938 489.945312 M 371.570312 473.515625 C 371.625 472.277344 371.699219 471.042969 371.71875 469.804688 C 371.722656 469.609375 371.472656 469.414062 371.339844 469.21875 C 371.195312 469.371094 370.96875 469.5 370.914062 469.683594 C 370.527344 470.960938 370.394531 472.28125 370.589844 473.597656 C 370.691406 474.304688 371 474.984375 371.246094 475.667969 C 371.292969 475.789062 371.476562 475.863281 371.597656 475.957031 C 371.644531 475.820312 371.738281 475.679688 371.730469 475.546875 C 371.691406 474.921875 371.625 474.304688 371.570312 473.515625 M 416.664062 470.566406 C 416.355469 471.945312 416.046875 473.324219 415.738281 474.703125 C 415.707031 474.835938 415.683594 474.972656 415.65625 475.109375 C 415.796875 475.007812 416.011719 474.941406 416.066406 474.808594 C 416.304688 474.234375 416.511719 473.648438 416.695312 473.058594 C 416.953125 472.242188 417.238281 471.425781 417.390625 470.589844 C 417.460938 470.214844 417.234375 469.789062 417.140625 469.386719 C 416.46875 469.554688 416.855469 470.109375 416.664062 470.566406 M 412.816406 469.722656 C 412.855469 469.628906 412.910156 469.535156 412.933594 469.433594 C 412.972656 469.265625 412.996094 469.089844 413.023438 468.917969 C 412.90625 469.011719 412.773438 469.089844 412.671875 469.199219 C 412.171875 469.746094 411.648438 470.273438 411.199219 470.863281 C 410.707031 471.511719 410.265625 472.203125 409.847656 472.90625 C 409.761719 473.050781 409.882812 473.320312 409.90625 473.53125 C 410.066406 473.425781 410.277344 473.351562 410.382812 473.203125 C 411.179688 472.078125 411.953125 470.941406 412.816406 469.722656 M 424.277344 460.539062 C 423.613281 459.867188 422.960938 459.183594 422.273438 458.539062 C 422.121094 458.398438 421.828125 458.410156 421.597656 458.351562 C 421.566406 458.597656 421.496094 458.847656 421.515625 459.089844 C 421.53125 459.285156 421.605469 459.558594 421.746094 459.648438 C 422.507812 460.128906 423.300781 460.566406 424.09375 461.003906 C 424.097656 461.007812 424.214844 460.8125 424.277344 460.539062 M 404.617188 508.648438 C 404.515625 508.527344 404.414062 508.40625 404.316406 508.28125 C 403.773438 508.777344 403.148438 509.214844 402.734375 509.800781 C 402.546875 510.066406 402.722656 510.652344 402.851562 511.054688 C 402.941406 511.335938 403.183594 511.410156 403.371094 511.019531 C 403.738281 510.246094 404.144531 509.496094 404.617188 508.648438 M 392.738281 505.953125 C 392.28125 505.902344 392.15625 506.121094 392.421875 506.460938 C 392.984375 507.191406 393.585938 507.886719 394.1875 508.582031 C 394.28125 508.691406 394.453125 508.738281 394.585938 508.8125 C 394.613281 508.652344 394.667969 508.492188 394.65625 508.339844 C 394.589844 507.136719 393.820312 506.492188 392.738281 505.953125 M 370.230469 461.550781 C 369.183594 462.113281 368.789062 463.191406 368.238281 464.140625 C 368.1875 464.226562 368.320312 464.429688 368.386719 464.566406 C 368.398438 464.585938 368.578125 464.570312 368.605469 464.523438 C 369.183594 463.566406 369.75 462.597656 370.230469 461.550781 M 385.710938 462.8125 C 385.957031 462.902344 386.207031 462.988281 386.453125 463.074219 C 386.304688 462.863281 386.199219 462.582031 385.996094 462.445312 C 384.9375 461.734375 383.859375 461.054688 382.777344 460.378906 C 382.699219 460.328125 382.558594 460.378906 382.449219 460.382812 C 382.523438 460.460938 382.585938 460.558594 382.671875 460.621094 C 383.65625 461.328125 384.640625 462.027344 385.710938 462.8125 M 379.519531 468.375 C 379.96875 468.429688 380.417969 468.507812 380.871094 468.53125 C 381.035156 468.539062 381.210938 468.421875 381.375 468.347656 C 381.382812 468.347656 381.363281 468.226562 381.328125 468.179688 C 381.085938 467.832031 379.515625 467.445312 379.175781 467.714844 C 378.875 467.957031 378.421875 468.492188 378.496094 468.621094 C 378.816406 469.152344 379.09375 468.453125 379.519531 468.375 M 421.265625 467.953125 C 421.265625 467.757812 421.285156 467.558594 421.257812 467.367188 C 421.246094 467.300781 421.128906 467.214844 421.050781 467.203125 C 420.960938 467.195312 420.789062 467.242188 420.777344 467.292969 C 420.539062 468.320312 420.3125 469.347656 420.109375 470.382812 C 420.085938 470.480469 420.226562 470.617188 420.292969 470.734375 C 420.394531 470.625 420.554688 470.527344 420.589844 470.398438 C 420.800781 469.617188 420.988281 468.824219 421.265625 467.953125 M 375.417969 461.550781 C 375.53125 461.460938 375.644531 461.375 375.753906 461.285156 C 375.707031 461.234375 375.640625 461.128906 375.613281 461.136719 C 374.917969 461.394531 374.222656 461.660156 373.535156 461.941406 C 373.46875 461.96875 373.453125 462.121094 373.410156 462.214844 C 373.523438 462.21875 373.648438 462.25 373.746094 462.214844 C 374.28125 462.03125 374.808594 461.828125 375.417969 461.550781 M 418.839844 463.65625 C 418.703125 463.792969 418.492188 463.914062 418.445312 464.078125 C 418.375 464.316406 418.398438 464.597656 418.433594 464.851562 C 418.449219 464.96875 418.589844 465.066406 418.671875 465.171875 C 418.8125 464.949219 419.027344 464.746094 419.070312 464.507812 C 419.113281 464.265625 418.980469 463.996094 418.839844 463.65625 M 397.675781 515.304688 C 397.949219 515.445312 398.21875 515.601562 398.5 515.71875 C 398.585938 515.753906 398.714844 515.714844 398.804688 515.667969 C 398.839844 515.652344 398.851562 515.484375 398.816406 515.457031 C 398.484375 515.203125 398.148438 514.941406 397.785156 514.734375 C 397.710938 514.691406 397.519531 514.855469 397.382812 514.925781 C 397.453125 515.023438 397.519531 515.125 397.675781 515.304688 M 393.492188 503.171875 C 393.378906 503.699219 393.761719 503.617188 394.039062 503.582031 C 394.191406 503.5625 394.332031 503.414062 394.476562 503.324219 C 394.261719 503.246094 394.042969 503.160156 393.824219 503.09375 C 393.746094 503.070312 393.65625 503.089844 393.492188 503.171875 M 367.972656 474.609375 C 367.890625 474.730469 367.804688 474.851562 367.722656 474.96875 C 367.796875 475.019531 367.871094 475.066406 367.945312 475.117188 C 367.984375 474.976562 368.019531 474.835938 367.972656 474.609375 M 403.613281 515.390625 C 403.667969 515.277344 403.722656 515.164062 403.777344 515.050781 C 403.703125 515.015625 403.628906 514.980469 403.554688 514.945312 C 403.519531 515.09375 403.484375 515.242188 403.613281 515.390625 Z M 403.613281 515.390625 " fill-opacity="1" fill-rule="nonzero"/></g></svg>